<?xml version="1.0" standalone="no"?>
<!DOCTYPE svg PUBLIC "-//W3C//DTD SVG 20010904//EN"
 "http://www.w3.org/TR/2001/REC-SVG-20010904/DTD/svg10.dtd">
<svg version="1.0" xmlns="http://www.w3.org/2000/svg"
 width="23" height="23" viewBox="0 0 320.000000 320.000000"
 preserveAspectRatio="xMidYMid meet">

<g transform="translate(0.000000,320.000000) scale(0.100000,-0.100000)"
fill="white" stroke="none">
<path d="M1450 3184 c-14 -2 -68 -11 -120 -20 -506 -85 -965 -434 -1180 -899
-114 -245 -157 -505 -139 -832 12 -214 43 -392 123 -704 69 -268 90 -382 101
-539 4 -59 13 -105 23 -123 79 -133 443 -60 634 127 l37 36 86 -56 c169 -110
294 -151 498 -163 221 -14 435 12 624 74 124 41 329 147 433 225 312 234 528
566 610 937 16 74 20 128 20 341 0 219 -3 265 -21 349 -134 620 -603 1090
-1221 1225 -71 15 -140 21 -288 23 -107 2 -206 2 -220 -1z m348 -799 c305 -71
552 -326 616 -637 76 -369 -138 -754 -499 -899 -222 -88 -452 -75 -660 39
l-70 39 -75 -62 c-87 -70 -134 -93 -159 -78 -48 30 -95 151 -127 328 -26 141
-26 465 -1 583 72 337 266 575 540 667 43 14 104 30 135 35 71 11 217 4 300
-15z"/>
</g>
</svg>
