<svg xmlns="http://www.w3.org/2000/svg" width="32" height="32" viewBox="7 9 17 14" fill="transparent">
  <path d="M21.8933 22.4149C21.8409 22.6872 21.6722 22.909 21.3309 22.9837C20.9407 23.069 20.71 22.7938 20.5666 22.656C18.8951 21.0508 14.0984 16.4629 13.895 16.2628C13.8174 16.1865 13.7163 16.0559 13.7163 15.8041C13.7163 15.5913 13.8695 15.4207 13.977 15.3502C15.192 14.5544 15.8599 14.0972 16.217 13.8588C16.5051 13.6666 16.7853 13.7123 17.0609 13.9794C17.3491 14.2589 22.437 19.1343 22.437 19.1343" fill="white"></path>
  <path d="M23.9899 9.67923C23.9663 9.82996 23.7187 11.3393 23.441 13.0289C23.3221 12.9148 21.4718 11.1391 21.2451 10.9247C21.0151 10.7068 20.8816 10.7808 20.8278 10.8171L20.541 11.0103C20.389 11.1126 20.3347 11.3484 20.5362 11.5462C20.6712 11.6787 23.1315 14.0396 23.2553 14.1583C22.9342 16.1106 22.63 17.9606 22.63 17.9606L17.5934 13.1343C17.5934 13.1343 17.4228 12.9324 17.104 12.9049C16.7777 12.8767 16.5732 13.0159 16.5732 13.0159L12.4751 15.415C12.4751 15.415 11.5669 15.982 10.2347 16.0614C8.9025 16.1409 7.45063 16.2197 7.45063 16.2197C7.45063 16.2197 7.07895 16.248 7.01518 15.9948C6.95072 15.7374 7.1028 15.6891 7.19318 15.6514L23.003 9.0519C23.003 9.0519 23.3499 8.90117 23.6671 9.11166C23.9843 9.32216 24.0236 9.46294 23.9899 9.67923Z" fill="white"></path>
</svg>