<svg width="23" height="23" viewBox="0 0 23 23" fill="none" xmlns="http://www.w3.org/2000/svg">
<g clip-path="url(#clip0_65_198)">
<path d="M11.9854 0C17.1842 0 19.7986 -0.00027001 21.3994 1.61426C23.0002 3.22886 23 5.82952 23 11.0146V11.9854C23 17.1715 23.014 19.7711 21.3994 21.3857C19.7848 23.0003 17.1842 23 11.9854 23H11.0283C5.82848 23 3.22886 23.0003 1.61426 21.3857C-0.000336446 19.7711 0 17.1715 0 11.9854V11.0146C0 5.82769 -0.000336446 3.22886 1.61426 1.61426C3.22886 -0.000336447 5.82848 0 11.0283 0H11.9854ZM3.88672 7.00586C4.00914 12.9848 7.15677 16.583 12.3428 16.583H12.6436V13.1621C14.5313 13.3535 15.9406 14.7633 16.5156 16.583H19.2383C18.4996 13.8608 16.584 12.3553 15.3936 11.7803C16.5839 11.069 18.2665 9.34516 18.6631 7.00586H16.1875C15.6669 8.9074 14.121 10.631 12.6436 10.7949V7.00586H10.125V13.6416C8.59326 13.2615 6.59559 11.3975 6.51367 7.00586H3.88672Z" fill="#A47764"/>
</g>
<defs>
<clipPath id="clip0_65_198">
<rect width="23" height="23" fill="white"/>
</clipPath>
</defs>
</svg>
