<svg width="23" height="23" viewBox="0 0 23 23" fill="none" xmlns="http://www.w3.org/2000/svg">
<g clip-path="url(#clip0_640_529)">
<path d="M23 11.2041C23 17.3916 17.9451 22.4075 11.7081 22.4075C9.72889 22.4075 7.86966 21.9013 6.25118 21.0148L0 23L2.03773 16.9873C1.01024 15.2998 0.418495 13.3184 0.418495 11.2034C0.419245 5.01594 5.47269 0 11.7096 0C17.9458 0.00149998 23 5.0167 23 11.2041ZM11.7074 1.78648C6.47318 1.78648 2.21548 6.01193 2.21548 11.2064C2.21548 13.2674 2.88747 15.1753 4.02371 16.7278L2.83872 20.225L6.48518 19.0663C7.98516 20.0503 9.77989 20.6233 11.7074 20.6233C16.9416 20.6233 21.2008 16.3986 21.2008 11.2041C21.2023 6.01193 16.9423 1.78648 11.7074 1.78648ZM17.4103 13.7848C17.3398 13.6716 17.1553 13.6026 16.8793 13.4646C16.6041 13.3266 15.2413 12.6629 14.9886 12.5729C14.7336 12.4806 14.5491 12.4341 14.3646 12.7094C14.1823 12.9846 13.6514 13.6026 13.4886 13.7871C13.3274 13.9708 13.1661 13.9941 12.8894 13.8583C12.6126 13.7189 11.7201 13.4309 10.6626 12.4956C9.83989 11.7666 9.28415 10.8689 9.12365 10.5936C8.9609 10.3191 9.10715 10.1706 9.2444 10.0341C9.36815 9.91039 9.52115 9.71314 9.65989 9.5519C9.79864 9.39215 9.84439 9.2789 9.93664 9.09515C10.0274 8.9114 9.98164 8.75165 9.91339 8.61291C9.84439 8.47491 9.29165 7.12492 9.0599 6.57518C8.82965 6.02618 8.59941 6.11693 8.43741 6.11693C8.27616 6.11693 8.09166 6.09443 7.90716 6.09443C7.72267 6.09443 7.42267 6.16118 7.16992 6.43643C6.91717 6.71168 6.20168 7.37542 6.20168 8.7269C6.20168 10.0799 7.19242 11.3841 7.33117 11.5671C7.47067 11.7494 9.24665 14.6136 12.0599 15.7131C14.8746 16.8118 14.8746 16.4451 15.3816 16.3986C15.8901 16.3521 17.0196 15.7348 17.2491 15.0943C17.4801 14.4508 17.4801 13.8996 17.4103 13.7848Z" fill="#A47764"/>
</g>
<defs>
<clipPath id="clip0_640_529">
<rect width="23" height="23" fill="white"/>
</clipPath>
</defs>
</svg>
