<svg width="97" height="78" viewBox="0 0 97 78" fill="none" xmlns="http://www.w3.org/2000/svg">
<mask id="mask0_640_441" style="mask-type:luminance" maskUnits="userSpaceOnUse" x="0" y="0" width="96" height="77">
<path d="M95.4791 0.318359H0.319092V76.7584H95.4791V0.318359Z" fill="white"/>
</mask>
<g mask="url(#mask0_640_441)">
<path d="M92.7229 44.7831L54.3619 22.2175C50.7074 20.0663 44.7855 20.0549 41.1534 22.2061L3.02075 44.7831C-0.611454 46.9345 -0.572459 50.4281 3.08482 52.5793L41.4459 75.1449C45.1003 77.2963 51.0026 77.2963 54.6349 75.1449L92.7674 52.5651C96.3997 50.4139 96.3802 46.9315 92.7257 44.7831H92.7229Z" fill="#83869F"/>
<path opacity="0.45" d="M92.7229 24.5019L54.3619 1.93742C50.7074 -0.213743 44.7855 -0.225095 41.1534 1.92606L3.02075 24.5048C-0.611454 26.6558 -0.572459 30.1493 3.08482 32.3005L41.4459 54.865C45.1003 57.0161 51.0026 57.0161 54.6349 54.865L92.7674 32.2863C96.3997 30.1353 96.3802 26.653 92.7257 24.5048L92.7229 24.5019Z" fill="#D0D3ED"/>
<g style="mix-blend-mode:soft-light" opacity="0.5">
<path d="M92.7229 24.5019L54.3619 1.93742C50.7074 -0.213743 44.7855 -0.225095 41.1534 1.92606L3.02075 24.5048C-0.611454 26.6558 -0.572459 30.1493 3.08482 32.3005L41.4459 54.865C45.1003 57.0161 51.0026 57.0161 54.6349 54.865L92.7674 32.2863C96.3997 30.1353 96.3802 26.653 92.7257 24.5048L92.7229 24.5019Z" fill="#83869F"/>
</g>
<g style="mix-blend-mode:screen" opacity="0.5">
<path d="M47.7311 1.23785C50.0794 1.23785 52.2743 1.76855 53.9121 2.73344L92.2742 25.2979C93.7591 26.1719 94.5751 27.2759 94.5779 28.4083C94.5779 29.5322 93.7757 30.6276 92.3161 31.4903L54.1823 54.0689C52.5612 55.0282 50.3829 55.5561 48.0487 55.5561C45.7145 55.5561 43.5306 55.0282 41.8955 54.0661L3.53336 31.5045C2.04311 30.6276 1.22139 29.518 1.2186 28.3771C1.2186 27.2533 2.01804 26.1607 3.47209 25.3008L41.6058 2.7221C43.2215 1.76571 45.3941 1.24069 47.7283 1.24069L47.7311 1.23785ZM47.7311 0.318359C45.3468 0.318359 42.9651 0.851892 41.1546 1.92463L3.02083 24.5062C-0.611481 26.6572 -0.572484 30.1509 3.0849 32.3019L41.4469 54.8664C43.2743 55.942 45.6643 56.4784 48.0487 56.4784C50.433 56.4784 52.8175 55.942 54.6336 54.8664L92.7674 32.2877C96.3997 30.1367 96.3802 26.6544 92.7256 24.5062L54.3634 1.93882C52.5306 0.860405 50.1294 0.321197 47.7311 0.321197V0.318359Z" fill="#83869F"/>
</g>
</g>
</svg>
