<svg width="78" height="78" viewBox="0 0 78 78" fill="none" xmlns="http://www.w3.org/2000/svg">
<mask id="mask0_640_452" style="mask-type:luminance" maskUnits="userSpaceOnUse" x="0" y="0" width="77" height="77">
<path d="M76.8719 0.289551H0.290039V76.8714H76.8719V0.289551Z" fill="white"/>
</mask>
<g mask="url(#mask0_640_452)">
<path d="M63.9945 8.79858H4.65831C2.24578 8.79858 0.290039 10.7543 0.290039 13.1669V72.503C0.290039 74.9156 2.24578 76.8713 4.65831 76.8713H63.9945C66.407 76.8713 68.3628 74.9156 68.3628 72.503V13.1669C68.3628 10.7543 66.407 8.79858 63.9945 8.79858Z" fill="#83869F"/>
<g opacity="0.3">
<path d="M72.2185 64.8893L56.854 52.5229C55.2869 51.2627 53.0776 51.2627 51.5105 52.5229L36.146 64.8893C34.2617 66.4076 31.49 65.0388 31.49 62.5915V5.26816C31.49 2.51676 33.6781 0.289551 36.3752 0.289551H71.9866C74.6864 0.289551 76.8718 2.51947 76.8718 5.26816V62.5915C76.8718 65.0388 74.1001 66.4076 72.2158 64.8893H72.2185Z" fill="#D0D3ED"/>
</g>
<path d="M55.4535 15.1844L58.1769 19.7064C58.3854 20.0527 58.731 20.2971 59.1314 20.3857L64.3672 21.5242C65.467 21.7632 65.9002 23.071 65.1542 23.898L61.6026 27.8319C61.331 28.1327 61.1994 28.53 61.2378 28.9303L61.7506 34.1557C61.8575 35.2539 60.7221 36.0622 59.6881 35.6218L54.7706 33.53C54.3948 33.3689 53.9669 33.3689 53.5912 33.53L48.6737 35.6218C47.6397 36.0622 46.5042 35.2539 46.6112 34.1557L47.1241 28.9303C47.1625 28.53 47.0309 28.1327 46.7593 27.8319L43.2076 23.898C42.4615 23.071 42.8949 21.7632 43.9947 21.5242L49.2305 20.3857C49.6308 20.2998 49.9764 20.0527 50.1849 19.7064L52.9083 15.1844C53.4815 14.2338 54.8831 14.2338 55.4563 15.1844H55.4535Z" fill="white"/>
<g style="mix-blend-mode:soft-light" opacity="0.5">
<path d="M72.2185 64.8893L56.854 52.5229C55.2869 51.2627 53.0776 51.2627 51.5105 52.5229L36.146 64.8893C34.2617 66.4076 31.49 65.0388 31.49 62.5915V5.26816C31.49 2.51676 33.6781 0.289551 36.3752 0.289551H71.9866C74.6864 0.289551 76.8718 2.51947 76.8718 5.26816V62.5915C76.8718 65.0388 74.1001 66.4076 72.2158 64.8893H72.2185Z" fill="#D0D3ED"/>
</g>
<g style="mix-blend-mode:screen" opacity="0.7">
<path d="M71.9866 1.16958C74.2066 1.16958 76.011 3.00842 76.011 5.27095V62.5952C76.011 63.8664 74.9609 64.6513 73.9855 64.6513C73.5404 64.6513 73.1139 64.4965 72.7516 64.2059L57.387 51.8393C56.4782 51.1087 55.3403 50.7039 54.1809 50.7039C53.0215 50.7039 51.8836 51.1058 50.9747 51.8393L35.6102 64.2059C35.2477 64.4992 34.8214 64.6513 34.3763 64.6513C33.4035 64.6513 32.3508 63.8664 32.3508 62.5952V5.27095C32.3508 3.00842 34.155 1.16958 36.3752 1.16958H71.9866ZM71.9866 0.289551H36.3752C33.6754 0.289551 31.49 2.51951 31.49 5.26825V62.5925C31.49 64.3335 32.8892 65.5259 34.3763 65.5259C34.9813 65.5259 35.5996 65.3277 36.1433 64.8903L51.5078 52.5237C52.2913 51.8936 53.2348 51.5785 54.1809 51.5785C55.127 51.5785 56.0705 51.8936 56.854 52.5237L72.2185 64.8903C72.7622 65.3277 73.3831 65.5259 73.9855 65.5259C75.4726 65.5259 76.8718 64.3308 76.8718 62.5925V5.27095C76.8718 2.51951 74.6837 0.292267 71.9866 0.292267V0.289551Z" fill="#D0D3ED"/>
</g>
</g>
</svg>
