<svg width="68" height="78" viewBox="0 0 68 78" fill="none" xmlns="http://www.w3.org/2000/svg">
<g clip-path="url(#clip0_640_480)">
<path d="M40.133 4.98721H30.7557C30.7557 2.23386 28.4837 0 25.6834 0C22.883 0 20.611 2.23386 20.611 4.98721H11.2338C9.55908 4.98721 8.20142 6.32209 8.20142 7.96868V14.0288C8.20142 15.6753 9.55908 17.0102 11.2338 17.0102H40.133C41.8077 17.0102 43.1654 15.6753 43.1654 14.0288V7.96868C43.1654 6.32209 41.8077 4.98721 40.133 4.98721Z" fill="#D7AC8A"/>
<g opacity="0.45">
<path d="M47.0197 9.21069H4.37843C1.9615 9.21069 0.00219727 11.1371 0.00219727 13.5135V73.6966C0.00219727 76.0729 1.9615 77.9994 4.37843 77.9994H47.0197C49.4366 77.9994 51.396 76.0729 51.396 73.6966V13.5135C51.396 11.1371 49.4366 9.21069 47.0197 9.21069Z" fill="#DFD8D2"/>
</g>
<g style="mix-blend-mode:soft-light" opacity="0.5">
<path d="M47.0197 9.21069H4.37843C1.9615 9.21069 0.00219727 11.1371 0.00219727 13.5135V73.6966C0.00219727 76.0729 1.9615 77.9994 4.37843 77.9994H47.0197C49.4366 77.9994 51.396 76.0729 51.396 73.6966V13.5135C51.396 11.1371 49.4366 9.21069 47.0197 9.21069Z" fill="#DFD8D2"/>
</g>
<g style="mix-blend-mode:screen" opacity="0.5">
<path d="M47.0221 9.93959C49.0253 9.93959 50.654 11.541 50.654 13.5106V73.6959C50.654 75.6654 49.0253 77.2669 47.0221 77.2669H4.37624C2.37304 77.2669 0.744304 75.6654 0.744304 73.6959V13.5106C0.744304 11.541 2.37304 9.93959 4.37624 9.93959H47.0198H47.0221ZM47.0221 9.20776H4.37624C1.95955 9.20776 0 11.1344 0 13.5106V73.6959C0 76.072 1.95955 77.9987 4.37624 77.9987H47.0198C49.4366 77.9987 51.3961 76.072 51.3961 73.6959V13.5106C51.3961 11.1344 49.4366 9.20776 47.0198 9.20776H47.0221Z" fill="#DFD8D2"/>
</g>
<path d="M36.843 70.6996L30.8427 72.9855C29.8433 73.3672 28.8601 72.3981 29.246 71.4156L31.5709 65.5159C31.9429 64.5718 32.5105 63.7135 33.2387 62.9974L60.1944 36.4939C61.1592 35.5453 62.7213 35.5453 63.6839 36.4939L66.3579 39.123C67.3204 40.0695 67.3204 41.6076 66.3579 42.5541L39.4021 69.0575C38.6739 69.7736 37.8009 70.3314 36.8407 70.6974L36.843 70.6996Z" fill="#D7AC8A"/>
<path d="M40.39 30.9179H10.9761C9.94926 30.9179 9.11768 30.1003 9.11768 29.0907C9.11768 28.081 9.94926 27.2634 10.9761 27.2634H40.39C41.4168 27.2634 42.2484 28.081 42.2484 29.0907C42.2484 30.1003 41.4168 30.9179 40.39 30.9179Z" fill="white"/>
<path d="M40.39 42.3133H10.9761C9.94926 42.3133 9.11768 41.4957 9.11768 40.4861C9.11768 39.4764 9.94926 38.6587 10.9761 38.6587H40.39C41.4168 38.6587 42.2484 39.4764 42.2484 40.4861C42.2484 41.4957 41.4168 42.3133 40.39 42.3133Z" fill="white"/>
<path d="M26.4066 53.7086H10.9761C9.94927 53.7086 9.11768 52.891 9.11768 51.8813C9.11768 50.8717 9.94927 50.054 10.9761 50.054H26.4066C27.4336 50.054 28.2651 50.8717 28.2651 51.8813C28.2651 52.891 27.4336 53.7086 26.4066 53.7086Z" fill="white"/>
</g>
<defs>
<clipPath id="clip0_640_480">
<rect width="67.08" height="78" fill="white"/>
</clipPath>
</defs>
</svg>
