<svg width="78" height="78" viewBox="0 0 78 78" fill="none" xmlns="http://www.w3.org/2000/svg">
<g clip-path="url(#clip0_640_465)">
<mask id="mask0_640_465" style="mask-type:luminance" maskUnits="userSpaceOnUse" x="0" y="0" width="78" height="78">
<path d="M78 0H0V78H78V0Z" fill="white"/>
</mask>
<g mask="url(#mask0_640_465)">
<path d="M30.7294 16.3796H30.7267C13.6646 16.3796 -0.166992 30.2111 -0.166992 47.2733V47.276C-0.166992 64.3381 13.6646 78.1697 30.7267 78.1697H30.7294C47.7915 78.1697 61.6231 64.3381 61.6231 47.276V47.2733C61.6231 30.2111 47.7915 16.3796 30.7294 16.3796Z" fill="#D7AC8A"/>
<g opacity="0.45">
<path d="M42.7923 2.66187C60.752 2.66187 75.3328 17.2427 75.3328 35.2023C75.3328 53.1619 60.752 67.7428 42.7923 67.7428C24.8328 67.7428 10.252 53.1619 10.252 35.2023C10.252 17.2427 24.8328 2.66187 42.7923 2.66187Z" fill="#E8D0CB"/>
</g>
<g style="mix-blend-mode:soft-light" opacity="0.5">
<path d="M42.7923 2.66187C60.752 2.66187 75.3328 17.2427 75.3328 35.2023C75.3328 53.1619 60.752 67.7428 42.7923 67.7428C24.8328 67.7428 10.252 53.1619 10.252 35.2023C10.252 17.2427 24.8328 2.66187 42.7923 2.66187Z" fill="#E8D0CB"/>
</g>
<g style="mix-blend-mode:screen" opacity="0.5">
<path d="M42.7923 3.5252C60.259 3.5252 74.4694 17.7357 74.4694 35.2023C74.4694 52.669 60.259 66.8794 42.7923 66.8794C25.3257 66.8794 11.1152 52.669 11.1152 35.2023C11.1152 17.7357 25.3257 3.5252 42.7923 3.5252ZM42.7923 2.66187C24.8221 2.66187 10.252 17.2294 10.252 35.2023C10.252 53.1752 24.8195 67.7428 42.7923 67.7428C60.7626 67.7428 75.3328 53.1752 75.3328 35.2023C75.3328 17.2294 60.7653 2.66187 42.7923 2.66187Z" fill="#E8D0CB"/>
</g>
<path d="M53.211 35.208C53.211 40.961 48.5479 45.624 42.795 45.624C37.042 45.624 32.3789 40.961 32.3789 35.208C32.3789 29.4551 37.042 24.792 42.795 24.792C48.5479 24.792 53.211 29.4551 53.211 35.208Z" fill="white"/>
<path d="M42.7923 59.6393C29.32 59.6393 18.3604 48.6797 18.3604 35.2074C18.3604 21.735 29.32 10.7754 42.7923 10.7754C56.2647 10.7754 67.2243 21.735 67.2243 35.2074C67.2243 48.6797 56.2647 59.6393 42.7923 59.6393ZM42.7923 15.0868C31.6969 15.0868 22.6717 24.1145 22.6717 35.2074C22.6717 46.3003 31.6969 55.328 42.7923 55.328C53.8879 55.328 62.9129 46.3003 62.9129 35.2074C62.9129 24.1145 53.8851 15.0868 42.7923 15.0868Z" fill="white"/>
<path d="M77.5253 8.25213C77.2162 7.54866 76.5048 7.109 75.74 7.14364L70.6266 7.37546L70.8584 2.26204C70.893 1.49463 70.4534 0.785836 69.75 0.474074C69.0465 0.164978 68.2258 0.316861 67.6822 0.860445L59.5817 8.9609C59.2327 9.30997 59.0382 9.78428 59.0382 10.2773V15.9156L41.2678 33.686C40.4257 34.528 40.4257 35.8923 41.2678 36.7343C41.6887 37.1554 42.2403 37.3659 42.7919 37.3659C43.3434 37.3659 43.8951 37.1554 44.3161 36.7343L62.0865 18.9639H67.7248C68.2178 18.9639 68.6921 18.7667 69.0411 18.4177L77.1416 10.3172C77.6852 9.77359 77.8371 8.95293 77.528 8.24946L77.5253 8.25213Z" fill="#D7AC8A"/>
</g>
</g>
<defs>
<clipPath id="clip0_640_465">
<rect width="78" height="78" fill="white"/>
</clipPath>
</defs>
</svg>
