<svg version="1.2" xmlns="http://www.w3.org/2000/svg" viewBox="0 0 120 120" width="120" height="120">
	<defs>
		<clipPath clipPathUnits="userSpaceOnUse" id="cp1">
			<path d="m118.35 1.73v116.54h-116.54v-116.54z"/>
		</clipPath>
	</defs>
	<style>
		.s0 { fill: #d7ac8a } 
	</style>
	<g id="Слой-1">
		<g>
			<path class="s0" d="m413.78 2.07c-2.4 0.58-2.95 0.78-5.55 1.93-2.63 1.18-6.92 3.28-7.8 3.83l-0.56 0.35 0.07 1.74c0.05 1.65 0.25 3.41 0.67 6.11 0.11 0.65 0.28 1.78 0.4 2.51 0.38 2.42 2.02 8.55 3.13 11.7 0.68 1.87 0.99 2.69 1.77 4.55 0.33 0.8 0.68 1.63 0.77 1.86 0.28 0.67 1.69 3.39 2.37 4.55 2.82 4.83 5.78 8.18 10.49 11.92 0.42 0.35 1.12 0.9 1.54 1.23 0.96 0.77 2.09 1.52 2.29 1.52 0.23 0 3.31-2.22 4.72-3.39 6.03-5.02 10.56-11.94 12.63-19.24 0.84-2.95 1.05-3.92 1.26-5.91 0.32-2.79 0.38-4.06 0.21-3.89-0.08 0.08-0.53 1.27-0.99 2.65-1.23 3.66-2.53 7.17-3.56 9.6-1 2.41-3.13 6.19-4.61 8.24-1.8 2.47-3.9 4.66-6.57 6.84-2.22 1.81-2.85 2.24-3.22 2.14-0.75-0.18-4.35-2.59-6.48-4.3-1.79-1.46-4.11-4.13-5.68-6.55-0.49-0.75-2.06-3.47-2.06-3.56 0-0.03-0.5-1.1-1.11-2.41-1.2-2.58-2.34-5.56-3.16-8.3-0.36-1.18-1.02-4.23-1.68-7.66-0.84-4.43-0.84-7.59 0.02-9.65 0.6-1.44 1.87-2.9 3.48-3.95 1.05-0.7 4.99-2.67 7.52-3.78 2.44-1.06 2.32-1.31-0.31-0.68z"/>
			<path class="s0" d="m415.07 17.77c-5.11 7.07-5.27 7.28-6.16 7.71-0.58 0.28-0.71 0.41-0.87 0.88l-0.2 0.57h2.62 2.63l0.07-0.37c0.03-0.2 0.11-0.46 0.15-0.58 0.07-0.17-0.02-0.25-0.43-0.36-0.6-0.16-0.76-0.31-0.89-0.82-0.1-0.41 0.09-0.82 0.97-2.14l0.59-0.88h2.24 2.24l-0.05 1.48c-0.07 1.91-0.23 2.19-1.48 2.42-0.4 0.08-0.49 0.17-0.66 0.67l-0.2 0.58h3.62 3.61l0.14-0.41c0.23-0.65 0.19-0.75-0.34-0.84-0.62-0.11-0.91-0.32-1.1-0.78-0.08-0.23-0.13-2.62-0.13-6.64v-6.26h-1.1-1.09zm2.89 2.77c-0.04 0.03-0.83 0.03-1.78 0.02l-1.72-0.04 1.73-2.38 1.75-2.38 0.04 2.36c0.01 1.3 0.01 2.4-0.02 2.42z"/>
			<path class="s0" d="m424.57 23.27c-0.22 0.69-0.22 0.69 0.45 0.81 0.6 0.1 0.81 0.34 0.81 0.9 0 0.39-2.72 9.51-3.12 10.48-0.24 0.56-0.54 0.83-1.12 0.99-0.4 0.1-0.53 0.21-0.6 0.5-0.05 0.2-0.12 0.46-0.16 0.58-0.06 0.23 0.16 0.24 3.43 0.24h3.5l0.2-0.6 0.21-0.58-0.49-0.09c-0.69-0.12-0.94-0.28-1.1-0.67-0.13-0.37-0.13-0.4 0.82-3.52l0.4-1.28h1.85c3.05 0 4.74-0.5 5.84-1.72 0.9-1 1.08-1.47 1.08-2.79 0-1.03-0.04-1.19-0.39-1.78-0.23-0.36-0.68-0.83-1.03-1.07-1.06-0.72-2.04-0.85-6.45-0.93l-3.92-0.08zm7.14 0.91c0.99 0.3 1.42 1.45 1.04 2.86-0.48 1.94-1.57 2.79-3.55 2.8-0.92 0-1.03-0.03-0.96-0.24 0.04-0.12 0.43-1.4 0.87-2.84 0.43-1.44 0.82-2.67 0.86-2.73 0.08-0.14 1.08-0.06 1.74 0.15z"/>
			<path class="s0" d="m185.11 37.22c-3.15 0.52-5.51 1.52-8.95 3.81-2.1 1.4-2.97 2.1-7.2 5.91-4.71 4.21-9.31 7.62-12.57 9.27-1.28 0.66-2.8 1.25-2.92 1.13-0.04-0.06 2.58-8.78 3.29-10.93 1.15-3.54 2.18-4.56 4.89-4.83l0.9-0.09 0.53-1.68c0.29-0.93 0.52-1.73 0.52-1.78 0-0.04-4.59-0.08-10.21-0.08h-10.22l-0.54 1.74-0.53 1.76 0.35 0.09c0.18 0.06 0.62 0.14 0.96 0.18 0.69 0.09 1.32 0.46 1.75 1.03 0.4 0.55 0.46 2.24 0.09 3.57-0.5 1.85-8.47 27.83-8.74 28.5-0.67 1.69-1.4 2.65-2.38 3.07-0.33 0.14-1.07 0.33-1.65 0.42l-1.04 0.15-0.5 1.65c-0.28 0.91-0.51 1.69-0.51 1.76 0 0.05 4.71 0.08 10.47 0.06l10.47-0.04 0.42-1.4c0.67-2.27 0.66-2.1 0.13-2.1-0.92 0-2.43-0.3-2.92-0.58-0.94-0.53-1.18-1.48-0.82-3.19 0.09-0.43 0.97-3.42 1.94-6.63l1.79-5.86h2.38c3.72 0 4.72 0.34 5.76 1.87 0.95 1.41 1.78 3.38 3.04 7.19 1.73 5.31 3.06 8.59 4.17 10.27l0.35 0.5 6.42-0.03 6.42-0.04 0.51-1.64c0.27-0.91 0.46-1.73 0.43-1.82-0.04-0.11-0.29-0.17-0.63-0.17-1.39-0.02-2.9-0.65-3.89-1.67-1.05-1.07-1.87-2.81-3.57-7.52-0.72-2.03-2.27-5.32-3.14-6.67-1.18-1.81-2.42-2.74-4.44-3.29-0.9-0.25-3.46-0.5-5.82-0.58l-0.99-0.03 1.59-0.85c3.03-1.59 6.04-3.64 10.44-7.09 3.61-2.82 4.64-3.58 5.67-4.19 2.01-1.16 4.39-1.89 7.54-2.27 2.81-0.35 3.89-0.57 4.75-0.97 1.44-0.69 2.07-1.62 2.09-3.12 0-1.4-0.48-2.18-1.68-2.71-0.57-0.26-2.84-0.3-4.2-0.08z"/>
			<path class="s0" d="m372.03 38.77c-0.57 1.74-3.58 11.72-3.58 11.85q0 0.15 1.75 0.15h1.75l0.92-1.81c2.2-4.3 3.96-6.19 6.47-6.99 0.94-0.29 1.38-0.35 3.49-0.41 1.9-0.07 2.4-0.04 2.4 0.09 0 0.19-9.45 31.23-9.95 32.71-0.89 2.58-1.92 3.55-4.14 3.91l-0.94 0.15-0.5 1.7c-0.27 0.94-0.47 1.73-0.45 1.76 0.12 0.12 5.9 0.34 10.83 0.42 5.45 0.09 11.14-0.08 13.69-0.41 7.11-0.94 13.27-5.84 15.04-12.01 0.65-2.21 0.67-5 0.08-6.61-1.51-4-6.03-5.76-14.8-5.76-2.54 0-2.91-0.03-2.91-0.2 0-0.12 0.62-2.3 1.39-4.86 2.35-7.84 2.65-8.63 3.64-9.62 0.76-0.76 1.52-1.05 3.24-1.22l1.48-0.14 0.49-1.59c0.28-0.89 0.53-1.68 0.57-1.77 0.04-0.12-2.97-0.16-14.82-0.16h-14.86zm22.16 22.78q2.92 0.59 3.53 2.62c0.25 0.85 0.25 2.79 0 3.98-0.99 4.68-3.97 8.75-7.18 9.83-1.03 0.36-2.4 0.37-3.13 0.03-0.91-0.41-1.65-1.5-1.65-2.42 0-0.17 3.74-13.26 4.03-14.09 0.08-0.24 3.12-0.21 4.4 0.05z"/>
			<path class="s0" d="m245.09 41.93c-1.29 0.14-2.75 0.49-4.04 0.94-1.15 0.41-2.64 1.11-2.64 1.24 0 0.04 0.39 0.63 0.89 1.32 0.99 1.4 0.82 1.34 2.41 0.77 0.87-0.32 1.2-0.36 2.64-0.37 1.47-0.02 1.73 0.02 2.35 0.3 0.97 0.44 1.91 1.49 2.28 2.55 0.37 1.08 0.49 3.13 0.28 4.76-0.19 1.33-0.93 4.6-1.06 4.6-0.04 0-0.23-0.21-0.4-0.48-1.15-1.68-3.61-2.79-6.86-3.09-4.35-0.4-8.97 0.75-12.65 3.15-1.13 0.75-3.52 3.1-4.28 4.21-1.09 1.65-2.14 4.03-2.63 6.03-0.31 1.35-0.31 4.95 0.02 6.17q0.51 1.84 1.11 2.89c2.28 3.97 6.42 5.96 12.34 5.96 3.16 0 5.62-0.53 7.98-1.73 4.14-2.1 7.92-6.5 10.84-12.61 1.98-4.13 3.37-8.53 4.12-13.08 0.17-1.06 0.24-2.11 0.23-3.9-0.02-2.73-0.2-3.74-1.01-5.39-0.54-1.1-1.85-2.44-2.94-3.03-2.12-1.11-5.7-1.6-8.98-1.21zm-4.02 15.74c1.18 0.34 2.24 1.72 2.69 3.47 0.26 1.05 0.26 3.62-0.02 5.24-0.42 2.44-1.6 5.97-2.85 8.55-1.14 2.34-2.76 4.05-4.37 4.61-1.01 0.34-2.61 0.32-3.48-0.08-3.15-1.39-3.32-6.82-0.44-14.38 1.63-4.28 3.15-6.28 5.5-7.25 0.86-0.36 2.12-0.43 2.97-0.16z"/>
			<path class="s0" d="m200.58 54.48c-2.35 0.2-5.05 0.93-6.83 1.84-2.19 1.11-4.71 3.17-6.11 5.02-0.85 1.13-2.27 3.99-2.69 5.47-0.52 1.83-0.64 2.86-0.56 4.84 0.21 4.67 2.1 7.68 6.06 9.62 2.55 1.24 4.07 1.55 7.85 1.55 2.55 0 3.09-0.04 4.34-0.31 3.65-0.78 6.35-2.18 8.94-4.61q5.15-4.87 5.18-11.54c0-2.68-0.56-4.62-1.87-6.64-2.14-3.27-5.2-4.84-10.25-5.25-1.85-0.15-2.35-0.15-4.06 0.01zm3.78 3.19q0.54 0.15 1.35 0.96c0.66 0.65 0.86 0.97 1.12 1.72 0.29 0.85 0.32 1.14 0.32 3.24 0 2.69-0.21 3.86-1.26 7.02-1.7 5.11-3.58 7.94-5.89 8.85-1.1 0.42-2.75 0.42-3.7 0-1.68-0.74-2.46-2.47-2.47-5.43 0-2.37 0.59-5.02 1.91-8.59 1.39-3.73 2.81-5.95 4.51-7.07 1.2-0.78 2.86-1.07 4.11-0.7z"/>
			<path class="s0" d="m278.36 54.47c-5.45 0.48-10.31 3.03-14.87 7.78q-5.53 5.76-5.53 12.06c0 3.23 0.97 5.23 3.27 6.74 1.16 0.75 2.72 1.33 4.44 1.64 1.74 0.31 5.51 0.21 7.32-0.19 4.86-1.07 9.81-4.2 12.45-7.88l0.42-0.59h-2.15-2.17l-0.65 0.67c-0.8 0.82-2.36 2.09-3.3 2.69-2.96 1.9-6.5 2.2-8.21 0.71-0.67-0.6-1.21-1.82-1.35-3.08-0.11-1.06 0-2.79 0.22-3 0.05-0.05 0.75-0.22 1.54-0.37 5.75-1.03 10.46-2.91 13.57-5.39 2.49-1.98 3.64-3.89 3.77-6.25 0.21-3.47-1.92-5.36-6.24-5.58-0.72-0.04-1.86-0.03-2.53 0.04zm0.09 3.42c0.47 0.35 0.69 0.86 0.69 1.73 0 1.7-0.92 3.4-2.78 5.18-1.74 1.67-3.55 2.74-5.66 3.35-1.53 0.45-1.69 0.43-1.59-0.07 0.13-0.66 1-2.91 1.69-4.35 1.93-4.07 4.48-6.41 6.72-6.14 0.33 0.04 0.74 0.17 0.93 0.3z"/>
			<path class="s0" d="m300.94 54.48c-3.91 0.51-7.19 3.14-9.62 7.72l-0.61 1.12h1.58l1.56-0.01 0.46-0.81c0.64-1.12 1.62-2.4 2.18-2.82 0.59-0.45 1.5-0.58 1.78-0.24 0.25 0.29 0.23 2.26-0.06 3.94-0.48 2.77-1.71 6.7-2.94 9.33-0.41 0.9-0.78 1.46-1.28 1.98-2.3 2.35-3.01 5.67-1.52 6.94 0.69 0.57 1.69 0.76 3.42 0.69 1.84-0.08 2.86-0.41 4.14-1.33 2.07-1.48 3.18-3.51 4.52-8.3l0.61-2.16 1.48-1.43 1.46-1.44 0.55 0.09c1.13 0.17 1.83 0.91 1.98 2.12 0.09 0.64-0.03 1.71-0.68 6.6-0.1 0.77 0.18 2.14 0.57 2.88 0.47 0.85 1.59 1.88 2.5 2.3 1.1 0.51 2.08 0.69 3.59 0.7 4.68 0.02 8.29-2.39 10.63-7.07 0.82-1.63 0.89-1.52-0.79-1.52h-1.46l-0.55 0.96c-1.97 3.37-3.73 4.45-4.42 2.75-0.11-0.31-0.3-1.43-0.42-2.49-0.38-3.67-0.98-5.64-2.11-6.9-0.64-0.71-2.2-1.74-3.19-2.11-0.92-0.35-2.39-0.66-3.12-0.66l-0.55-0.02 0.92-0.87c3.33-3.14 6.41-4.95 8.47-4.98 0.89-0.01 1.02 0.03 2.25 0.66 1.55 0.82 2.19 1 3.33 0.99 2-0.01 3.45-1.35 3.46-3.17 0.02-2.96-4.03-4.38-8.48-2.97-3.57 1.12-5.87 2.74-12.05 8.56-0.94 0.87-1.68 1.51-1.64 1.4 0.84-2.29 1.36-4.9 1.23-6.13-0.31-2.57-1.77-3.95-4.56-4.31-1.14-0.15-1.46-0.15-2.62 0.01z"/>
			<path class="s0" d="m350.94 54.48c-4.77 0.47-10.07 3.31-13.5 7.25q-4.93 5.65-5.16 11.64c-0.12 3.08 0.5 4.94 2.24 6.66 2.01 1.99 4.81 2.89 9.08 2.89 5.72 0.02 10.14-1.9 14.22-6.16 0.79-0.81 1.64-1.78 1.88-2.11l0.43-0.62h-2.06-2.07l-1.16 1.07c-2.82 2.58-5.04 3.71-7.68 3.91-1.27 0.09-2.22-0.12-3.12-0.7-2.42-1.57-2.34-6.01 0.22-12.94 1.81-4.89 4.11-7.5 6.77-7.7 1.14-0.08 1.72 0.04 2.21 0.43 0.51 0.45 0.56 0.88 0.25 2.18-0.35 1.45-0.29 2.98 0.13 3.8 0.54 1.05 1.89 1.78 3.32 1.78 1.34 0.01 1.94-0.22 2.86-1.15 1.15-1.13 1.43-1.9 1.44-3.9 0-1.44-0.02-1.57-0.42-2.42-0.5-1.05-1.65-2.31-2.6-2.85-1.71-0.96-4.32-1.35-7.28-1.06z"/>
		</g>
		<g>
			<g id="Clip-Path" clip-path="url(#cp1)">
				<g>
					<path class="s0" d="m28.74 2.69q-0.16 0.17-0.16 0.45 0 0.29-0.17 0.33-0.16 0.04-0.44 0.32-0.29 0.29-0.37 0.61-0.08 0.33-0.25 0.37-0.16 0.04-0.48 0.49-0.33 0.44-0.29 0.69 0.04 0.24 0.25 0.36 0.2 0.12 0.32 0.37 0.12 0.24 0.12 1.67 0 1.42 0.08 1.58 0.09 0.16 0.37 0.25 0.29 0.08 0.33 0.2 0.04 0.12-0.45 0.32-0.49 0.21-1.38 1.3-0.9 1.1-1.06 1.39-0.17 0.28-0.21 1.01-0.04 0.74-1.75 2.12-1.71 1.38-3.45 3.13-1.75 1.75-3.46 3.78-1.71 2.03-3.06 3.94-1.34 1.91-2.56 3.99-1.22 2.07-2.32 4.39-1.1 2.32-1.99 4.71-0.9 2.4-1.59 4.96-0.69 2.57-1.1 4.84-0.41 2.28-0.65 5-0.24 2.73-0.24 5.33 0 2.6 0.32 5.85 0.33 3.26 0.94 6.14 0.61 2.89 1.26 5 0.65 2.12 1.46 4.19 0.82 2.07 2.08 4.59 1.26 2.53 2.6 4.68 1.35 2.15 3.18 4.55 1.83 2.4 3.9 4.6 2.08 2.19 3.83 3.74 1.75 1.54 3.66 2.97 1.91 1.42 4.52 3 2.6 1.59 5.17 2.81 2.56 1.22 5.41 2.24 2.85 1.01 5.9 1.74 3.05 0.74 5.78 1.1 2.72 0.37 6.47 0.45 3.74 0.08 5.49-0.04 1.75-0.12 4.68-0.57 2.93-0.45 5.62-1.14 2.68-0.69 5.16-1.58 2.49-0.9 5.29-2.24 2.81-1.34 5.34-2.89 2.52-1.54 4.76-3.25 2.23-1.71 4.8-4.15 2.56-2.44 4.07-4.18 1.5-1.75 3.21-4.15 1.71-2.4 2.81-4.27 1.1-1.87 2.4-4.63 1.3-2.77 2.28-5.57 0.98-2.81 1.63-5.53 0.65-2.73 1.01-5.37 0.37-2.64 0.49-5.94 0.12-3.29-0.04-5.89-0.16-2.6-0.69-5.82-0.53-3.21-1.18-5.61-0.65-2.39-1.46-4.63-0.82-2.24-2.2-5.12-1.39-2.89-2.4-4.6-1.02-1.71-2.73-4.1-1.71-2.4-3.42-4.35-1.71-1.96-3.66-3.83-1.95-1.87-4.23-3.65-2.28-1.79-4.44-3.18-2.15-1.38-4.39-2.56-2.24-1.18-4.68-2.19-2.44-1.02-5.41-1.91-2.97-0.9-6.03-1.47-3.05-0.57-6.18-0.81-3.14-0.24-6.19-0.16-3.05 0.08-6.1 0.48-3.05 0.41-6.06 1.14-3.02 0.74-5.95 1.79-2.93 1.06-6.06 2.6-1.57 0.78-3.13 1.55 0-0.04 0-0.08 0-0.08-0.37-0.21-0.36-0.12-0.36-0.2 0-0.08 0.2-0.28 0.2-0.21 0.2-0.82 0-0.61-0.16-0.89-0.16-0.29-0.12-0.69 0.04-0.41 0.12-0.61 0.08-0.21 0.33-0.41 0.24-0.2 0.24-0.57 0-0.36-0.08-0.53-0.08-0.16-0.33-0.28-0.24-0.12-0.32-0.45-0.08-0.32-0.53-0.65-0.45-0.32-0.45-0.49 0-0.16-0.2-0.4-0.21-0.25-0.57-0.29-0.37-0.04-0.53 0.12zm0.16 1.22q-0.04 0.29-0.08 0.57-0.08 0.57-0.16 0.61-0.08 0.04-0.29-0.16-0.2-0.2 0.16-0.61 0.19-0.2 0.37-0.41zm0.9 1.06q0.16 0.18 0.32 0.37 0.33 0.36 0.61 0.28 0.14-0.04 0.29-0.08-0.13 0.14-0.25 0.28-0.24 0.29-0.28 0.49-0.04 0.21-0.12 0.21-0.09 0-0.13-0.45-0.04-0.45-0.24-0.77-0.1-0.17-0.2-0.33zm-2.04 0.33q0.16 0 0.41 0.2 0.24 0.2 0.24 1.34 0 0.57 0 1.14-0.08 0-0.16 0-0.16 0-0.24-0.81-0.09-0.82-0.29-1.14-0.2-0.33-0.16-0.53 0.04-0.2 0.2-0.2zm32.8 0.81q2.93 0 5.7 0.28 2.76 0.29 5.65 0.9 2.89 0.61 5.09 1.3 2.2 0.69 4.96 1.87 2.77 1.18 5.17 2.52 2.4 1.34 4.72 2.97 2.32 1.62 3.87 2.93 1.54 1.3 3.42 3.17 1.87 1.87 3.78 4.22 1.91 2.36 3.42 4.68 1.51 2.32 2.73 4.68 1.22 2.35 2.11 4.59 0.9 2.24 1.67 4.84 0.77 2.6 1.22 4.88 0.45 2.27 0.73 5.08 0.29 2.8 0.29 5.57 0 2.76-0.25 5.28-0.24 2.52-0.85 5.53-0.61 3.01-1.34 5.37-0.74 2.36-1.75 4.8-1.02 2.44-2.24 4.71-1.22 2.28-2.48 4.19-1.27 1.91-3.1 4.19-1.83 2.28-3.98 4.43-2.16 2.16-4.28 3.86-2.11 1.71-4.35 3.17-2.24 1.47-4.56 2.69-2.32 1.22-4.15 1.99-1.83 0.77-4.19 1.54-2.36 0.78-5.37 1.43-3.01 0.65-5.62 0.93-2.6 0.29-5.17 0.33-2.56 0.04-5.45-0.21-2.89-0.24-5.33-0.69-2.44-0.44-5.49-1.34-3.05-0.89-5.05-1.71-1.99-0.81-4.31-1.99-2.32-1.18-4.6-2.64-2.28-1.46-4.44-3.17-2.15-1.71-4.35-3.86-2.2-2.16-3.66-3.91-1.47-1.75-3.01-3.98-1.55-2.24-2.97-4.84-1.43-2.6-2.49-5.12-1.05-2.52-1.87-5.21-0.81-2.68-1.34-5.44-0.53-2.77-0.73-4.76-0.21-1.99-0.25-4.76-0.04-2.76 0.29-6.14 0.32-3.37 1.01-6.5 0.7-3.13 1.71-6.06 1.02-2.93 2.49-5.94 1.46-3 3.37-5.93 1.92-2.93 3.75-5.12 1.83-2.2 3.29-3.66 1.47-1.47 2.24-2.16 0.77-0.69 0.98-0.77 0.1-0.04 0.2-0.08 0.04 0.47 0.08 0.93 0.08 0.94-1.91 2.85-1.99 1.91-3.66 3.9-1.67 1.99-3.42 4.64-1.75 2.64-2.97 5-1.22 2.36-2.16 4.71-0.93 2.36-1.58 4.6-0.66 2.23-1.14 4.75-0.49 2.53-0.74 5.21-0.24 2.68-0.2 5.69 0.04 3.01 0.33 5.45 0.28 2.44 0.81 4.92 0.53 2.48 1.3 4.92 0.77 2.44 1.63 4.47 0.85 2.03 2.12 4.39 1.26 2.36 3.05 4.96 1.79 2.6 3.5 4.59 1.71 2 4.11 4.23 2.4 2.24 4.19 3.58 1.79 1.34 4.03 2.72 2.23 1.39 4.76 2.61 2.52 1.22 5.25 2.19 2.72 0.98 5.25 1.59 2.52 0.61 5.73 1.01 3.22 0.41 6.07 0.45 2.85 0.04 5.57-0.2 2.73-0.25 4.93-0.65 2.19-0.41 5.12-1.26 2.93-0.86 5.13-1.75 2.2-0.9 4.8-2.28 2.61-1.38 4.72-2.8 2.12-1.43 4.32-3.26 2.19-1.83 3.98-3.66 1.8-1.82 2.97-3.25 1.19-1.42 2.53-3.33 1.34-1.91 2.93-4.76 1.59-2.84 2.36-4.63 0.77-1.79 1.38-3.54 0.61-1.75 1.1-3.54 0.49-1.79 0.85-3.66 0.37-1.87 0.61-3.94 0.25-2.07 0.33-4.07 0.08-1.99 0.04-3.61-0.04-1.63-0.24-3.78-0.21-2.16-0.61-4.4-0.41-2.23-0.86-3.94-0.45-1.71-1.1-3.62-0.65-1.91-1.3-3.45-0.65-1.55-2.07-4.23-1.43-2.68-3.14-5.16-1.71-2.49-3.5-4.56-1.79-2.07-3.86-4.02-2.08-1.95-4.28-3.62-2.19-1.67-4.39-3.01-2.2-1.34-4.56-2.48-2.36-1.14-5.49-2.24-3.13-1.09-5.86-1.7-2.73-0.61-5.62-0.94-2.89-0.32-6.06-0.32-3.17 0-5.78 0.28-2.6 0.28-5.29 0.85-2.68 0.57-5.53 1.51-2.85 0.93-5.58 2.19-2.72 1.26-5.25 2.81-1.26 0.77-2.52 1.54 0.08-0.14 0.16-0.28 0.17-0.29 0.21-0.85 0.04-0.57 0.36-1.02 0.33-0.45 2-1.42 1.66-0.98 3.9-2.04 2.24-1.05 4.44-1.87 2.2-0.81 4.43-1.42 2.24-0.61 4.72-1.06 2.49-0.44 4.64-0.65 2.16-0.2 5.09-0.2zm1.1 2.32q1.99 0.04 4.35 0.28 2.36 0.25 4.48 0.65 2.11 0.41 3.91 0.9 1.79 0.48 3.41 1.05 1.63 0.57 3.42 1.35 1.79 0.77 3.79 1.82 1.99 1.06 3.82 2.24 1.83 1.18 3.38 2.36 1.55 1.18 2.93 2.4 1.38 1.22 2.85 2.72 1.46 1.51 2.68 2.97 1.22 1.46 3.22 4.43 1.99 2.97 2.89 4.68 0.89 1.7 1.71 3.57 0.81 1.87 1.46 3.79 0.65 1.91 1.14 3.78 0.49 1.87 0.85 3.94 0.37 2.07 0.57 4.19 0.21 2.11 0.25 3.66 0.04 1.54-0.08 3.98-0.13 2.44-0.41 4.51-0.28 2.08-0.77 4.27-0.49 2.2-1.1 4.15-0.61 1.95-1.34 3.78-0.74 1.83-1.59 3.58-0.86 1.75-1.83 3.41-0.98 1.67-2.32 3.58-1.34 1.91-2.48 3.29-1.14 1.39-2.97 3.26-1.84 1.87-3.06 2.92-1.22 1.06-1.34 1.02-0.12-0.04-0.49-0.61-0.36-0.57-0.97-1.1-0.62-0.53-0.62-0.65 0-0.12 0.33-0.85 0.33-0.73 0.61-0.73 0.29 0 0.73-0.41 0.45-0.41 1.1-1.67 0.65-1.26 0.82-1.87 0.16-0.61 0.16-1.14 0-0.52-0.2-1.13-0.21-0.61 0.24-1.18 0.45-0.57 0.94-1.51 0.48-0.93 0.61-1.26 0.12-0.32 0.08-0.89-0.04-0.57-0.45-1.14-0.41-0.57-0.81-0.73-0.41-0.16-0.94 0.04-0.53 0.2-1.02 0.73-0.49 0.53-0.61 0.49-0.12-0.04-0.61-1.79-0.49-1.75-1.26-5.57-0.77-3.82-1.26-5.2-0.49-1.39-1.55-3.3-1.06-1.91-3.74-5.85-2.69-3.95-2.89-4.35-0.2-0.41-0.12-0.53 0.08-0.12 0.04-0.57-0.04-0.45-0.57-1.34-0.53-0.9-0.86-1.06-0.32-0.16-0.53-0.93-0.2-0.78-0.85-2.12-0.65-1.34-1.14-2.03-0.49-0.69-1.18-1.34-0.69-0.65-0.81-1.34-0.13-0.7-0.57-1.35-0.45-0.65-0.82-1.01-0.36-0.37-0.53-0.41-0.16-0.04-0.32-0.93-0.16-0.9-0.49-1.47-0.33-0.57 0.12-0.89 0.45-0.33 0.49-0.81 0.04-0.49-0.2-0.9-0.25-0.41-0.61-0.53-0.37-0.12-0.29-0.73 0.08-0.61-0.28-1.46-0.37-0.86-0.94-1.3-0.57-0.45-0.57-0.94 0-0.49 0.12-0.69 0.13-0.2 0.53-0.49 0.41-0.28 0.65-1.3 0.25-1.02 0.21-1.54-0.04-0.53-0.25-0.94-0.2-0.41-0.24-1.42-0.04-1.02-0.37-1.67-0.32-0.65-0.65-0.98-0.32-0.32-0.65-0.44-0.32-0.12-0.41-0.37-0.08-0.24-0.36-0.53-0.29-0.28-0.78-0.48-0.48-0.21-0.69-0.49-0.2-0.29-0.53-0.41-0.32-0.12-0.97-0.08-0.65 0.04-1.1-0.33-0.45-0.36-0.94-0.4-0.49-0.04-1.06 0.12-0.57 0.16-0.85 0.41-0.29 0.24-0.69 0.12-0.41-0.12-1.18-0.12-0.78 0-1.02 0.08-0.24 0.08-0.89 0.57-0.66 0.48-0.9 0.89-0.24 0.41-0.28 0.69-0.05 0.29-0.62 0.41-0.56 0.12-0.97 0.53-0.41 0.4-0.53 0.77-0.12 0.37-0.12 0.81 0 0.45 0.2 0.86 0.2 0.4 0.57 0.65 0.37 0.24 0.24 0.49-0.12 0.24-0.08 0.56 0.04 0.33 0.17 0.45 0.12 0.12 0.04 0.69-0.08 0.57 0.04 0.86 0.12 0.28 0 1.5-0.12 1.22 0.04 1.38 0.16 0.17 0.4 1.47 0.25 1.3 0.66 2.48 0.4 1.18 0.73 1.46 0.32 0.28 1.18 0.65 0.85 0.37 0.89 1.87 0.04 1.51-0.36 1.55-0.41 0.04-1.02-0.25-0.61-0.28-1.14-0.89-0.53-0.61-1.38-1.1-0.86-0.49-1.71-0.73-0.86-0.25-1.67-0.33-0.81-0.08-0.9-0.28-0.08-0.2-1.18-0.81-1.09-0.61-1.5-0.61-0.41 0-0.53 0.08-0.12 0.08-4.11-2.12-3.99-2.19-4.84-3.05-0.86-0.85-1.51-1.87-0.65-1.01-1.02-1.87-0.36-0.85-0.85-1.62-0.49-0.78-2.16-2.48-1.67-1.71-2.24-2.52-0.56-0.82-0.44-1.18 0.12-0.37 0.12-0.86 0-0.48-0.2-1.3-0.21-0.81-0.53-0.89-0.33-0.08-0.41-1.18-0.08-1.1 0.61-1.63 0.69-0.53 2.6-1.66 1.92-1.14 4.4-2.32 2.48-1.18 5.29-2.16 2.81-0.97 5.78-1.62 2.97-0.65 5-0.9 2.04-0.24 3.71-0.32 1.66-0.08 3.66-0.04zm-33.74 0.2q0.19 0 0.37 0 0.18 0 0.37 0 0 0.18 0 0.37 0 0.36-0.33 0.4-0.16 0.02-0.32 0.04-0.02-0.2-0.04-0.4-0.03-0.21-0.05-0.41zm2.36 1.95q0.33 0 0.37 0.41 0.02 0.2 0.04 0.4-0.36-0.02-0.73-0.04-0.73-0.04-1.34 0.17-0.61 0.2-1.06 0.69-0.45 0.49-0.73 0.65-0.29 0.16-0.37 0.49-0.04 0.16-0.08 0.32 0.08 0.02 0.16 0.04 0.16 0.04 1.06-0.73 0.89-0.77 2.11-0.77 0.62 0 1.23 0-0.05 0.12-0.09 0.24-0.08 0.25-1.26 0.37-1.18 0.12-2.15 0.81-0.98 0.69-1.31 0.61-0.16-0.04-0.32-0.08 0.16-0.33 0.32-0.65 0.33-0.65 0.94-1.3 0.61-0.65 1.02-0.9 0.4-0.24 1.14-0.48 0.73-0.25 1.05-0.25zm-0.2 3.05q0.45 0.04 0.57 0.12 0.12 0.08 0.12 0.21 0 0.06 0 0.12-0.3-0.02-0.61-0.04-0.61-0.04-1.38 0.08-0.77 0.12-1.47 0.61-0.69 0.49-1.09 0.65-0.21 0.08-0.41 0.16 0.14-0.16 0.28-0.32 0.29-0.33 0.82-0.65 0.53-0.33 1.1-0.57 0.57-0.25 1.09-0.33 0.53-0.08 0.98-0.04zm-0.04 1.34q0 0.1 0 0.21 0 0.2-0.73 0.44-0.73 0.25-1.22 0.65-0.49 0.41-0.98 0.65-0.49 0.25-0.53 0.53-0.04 0.29 0.04 0.53 0.08 0.25 0.65 1.3 0.57 1.06 0.37 1.26-0.2 0.21-0.2 1.02 0 0.41 0 0.81-0.27-0.43-0.53-0.85-0.53-0.86-0.69-1.79-0.17-0.94-0.21-1.91-0.04-0.98 0.21-1.42 0.24-0.45 0.61-0.57 0.36-0.13 0.61-0.33 0.24-0.2 1.42-0.36 0.59-0.09 1.18-0.17zm-0.98 4.39q0.06 0.02 0.13 0.04 0.12 0.04 0.12 0.41 0 0.18 0 0.37-0.06 0-0.12 0-0.07 0-0.13 0 0-0.21 0-0.41 0-0.2 0-0.41zm1.14 1.71q0.08 0.02 0.17 0.04 0.16 0.04 0.2 0.49 0.02 0.22 0.04 0.45-0.08-0.08-0.16-0.17-0.17-0.16-0.21-0.48-0.02-0.17-0.04-0.33zm-1.71 0.24q0.07 0 0.13 0 0.12 0 0.28 1.1 0.16 1.1 0.16 1.3 0 0.21-0.12 0.25-0.12 0.04-0.2 0.04-0.08 0-0.16-1.34-0.05-0.67-0.09-1.35zm-2.6 0.25q0.3 0.36 0.61 0.73 0.61 0.73 1.02 1.42 0.4 0.69 0.28 1.22-0.12 0.53 0 2.93 0.12 2.4 0.25 2.77 0.12 0.36 0.32 0.44 0.21 0.08 0.25 0.61 0.04 0.53-0.21 1.14-0.24 0.61-0.65 1.1-0.41 0.49-0.65 1.1-0.24 0.61-0.37 1.74-0.12 1.14 0 1.67 0.13 0.53-0.2 0.73-0.32 0.21-1.06 0.21-0.73 0-1.26 0.36-0.53 0.37-0.98 0.41-0.44 0.04-0.77 0.24-0.32 0.21-0.61 0.65-0.28 0.45-0.49 1.18-0.2 0.73-0.44 1.1-0.25 0.37-0.25 0.73 0 0.37 0.16 0.61 0.17 0.25-0.4 0.81-0.57 0.57-0.86 0.37-0.28-0.2-0.28-0.41 0-0.2 0.2-0.48 0.2-0.29 0.2-0.53 0-0.25-0.12-0.37-0.12-0.12-0.4-0.08-0.29 0.04-0.57 0.41-0.29 0.36-0.7 0.48-0.4 0.13-0.4 0.33 0 0.2 0.28 0.33 0.29 0.12 0.37 0.48 0.08 0.37 0.41 0.65 0.32 0.29 0.44 0.29 0.06 0 0.12 0-0.02 0.24-0.04 0.49-0.04 0.48 0.13 0.81 0.16 0.32 0.4 0.45 0.25 0.12 0.25 0.44 0 0.33-2.24 14.19-2.24 13.87-2.65 13.91-0.4 0.04-0.44 0.32-0.04 0.29 0.08 0.61 0.12 0.33 0.36 0.61 0.25 0.29 1.22 1.18 0.98 0.9 2.53 1.3 1.54 0.41 2.72 0.33 1.18-0.08 2.04-0.29 0.85-0.2 1.83-0.77 0.98-0.57 1.75-1.3 0.77-0.73 0.94-1.02 0.16-0.28 0.12-0.48-0.04-0.21-0.29-0.25-0.24-0.04-3.29-14.51-3.06-14.48-2.93-14.68 0.12-0.2 0.12-0.61 0-0.41 0.32-0.61 0.33-0.2 1.31-1.18 0.97-0.97 2.32-2.48 1.34-1.5 1.91-1.67 0.57-0.16 0.81 0.17 0.25 0.32 0.37 0.73 0.12 0.41 0.28 0.57 0.17 0.16 0.37 0.16 0.2 0 0.49-0.24 0.28-0.25 0.57-0.86 0.28-0.61 0.57-0.97 0.28-0.37 0.61-0.57 0.32-0.21 0.61-0.25 0.28-0.04 1.02 0.09 0.73 0.12 2.64 1.26 1.91 1.13 1.99 1.7 0.09 0.57 0.29 0.78 0.2 0.2 0.41 0.24 0.2 0.04 0.2 0.28 0 0.25 0.12 0.45 0.12 0.2-2.85 15.33-2.97 15.12-3.25 15.33-0.29 0.2-0.29 0.4 0 0.21 0.78 1.14 0.77 0.94 1.58 1.46 0.82 0.53 1.43 0.82 0.61 0.28 1.99 0.53 1.39 0.24 2.52 0.16 1.14-0.08 1.92-0.33 0.77-0.24 1.71-0.65 0.93-0.4 1.87-1.14 0.93-0.73 1.26-1.21 0.33-0.49 0.33-0.86 0-0.36-0.21-0.53-0.2-0.16-0.57-0.16-0.36 0-3.42-14.35-3.05-14.35-3.25-15.21-0.2-0.85-0.33-0.93-0.12-0.08-0.12-0.33 0-0.24 0.25-0.36 0.24-0.13 0.44-0.53 0.1-0.2 0.21-0.41 0.14 0.14 0.28 0.29 0.29 0.28 1.38 0.93 1.1 0.65 1.47 0.98 0.37 0.32 1.18 0.73 0.81 0.41 0.89 0.65 0.09 0.24 0.37 0.49 0.29 0.24 1.18 0.65 0.9 0.4 1.22 0.45 0.33 0.04 1.06 0.89 0.73 0.85 0.94 1.46 0.2 0.61 0 1.3-0.21 0.7-0.86 1.55-0.65 0.85-0.73 1.91-0.08 1.06 0.2 1.91 0.29 0.85 0.82 1.51 0.53 0.65 0.48 1.91-0.04 1.26 0.04 1.58 0.09 0.33 0.05 1.38-0.04 1.06 0.04 1.83 0.08 0.78 0.4 1.79 0.33 1.02 0.65 1.3 0.33 0.29 0.45 1.43 0.12 1.13 0 1.22-0.12 0.08-0.36 0.61-0.25 0.52-0.53 1.83-0.29 1.3-0.45 5.32-0.16 4.03-0.45 6.63-0.28 2.6-0.49 3.41-0.2 0.82-1.14 2.16-0.93 1.34-1.46 3.29-0.53 1.95-0.94 2.4-0.4 0.45-1.18 1.06-0.77 0.61-1.14 1.3-0.36 0.69-0.36 1.3 0 0.61 0.36 1.91 0.37 1.3 0.37 1.59 0 0.28-0.2 0.89-0.21 0.61-0.09 2.76 0.07 1.08 0.13 2.16-1.49-0.57-2.97-1.14-2.97-1.14-5.82-2.68-2.85-1.55-4.36-2.56-1.5-1.02-3.01-2.2-1.5-1.18-4.07-3.66-2.56-2.48-4.68-5.16-2.11-2.68-3.58-5.08-1.46-2.4-2.2-3.87-0.73-1.46-1.5-3.33-0.77-1.87-1.75-5.16-0.98-3.3-1.51-6.71-0.53-3.42-0.61-6.83-0.08-3.42 0.08-5.45 0.17-2.03 0.41-3.66 0.25-1.62 0.69-3.62 0.45-1.99 0.98-3.74 0.53-1.75 1.38-3.9 0.86-2.16 1.59-3.66 0.73-1.5 2.36-4.19 1.63-2.68 3.5-5.08 1.87-2.4 4.15-4.67 1.14-1.14 2.28-2.28zm38.29 1.99q0.37 0.04 0.61 0.29 0.25 0.24 0.53 0.32 0.29 0.08 0.29 0.2 0 0.07 0 0.13-0.29-0.17-0.57-0.33-0.57-0.32-1.06-0.37-0.49-0.04-0.49-0.12 0-0.08 0.16-0.12 0.17-0.04 0.53 0zm2.16 0.61q0.2 0.02 0.41 0.04 0.4 0.04 0.56 0.37 0.17 0.32 0.49 0.49 0.17 0.08 0.33 0.16-0.29-0.04-0.57-0.08-0.57-0.08-0.9-0.53-0.16-0.23-0.32-0.45zm-35.89 0.16q0.04 0 0.08 0 0.08 0 0.2 0.57 0.12 0.57 0.16 1.55 0.03 0.49 0.05 0.97-0.13-0.77-0.25-1.54-0.12-0.77-0.24-1.55zm-1.55 0.17q0.08 0 0.12 0.16 0.04 0.16 0.41 2.36 0.37 2.19 0.37 2.44 0 0.24-0.17 0.28-0.16 0.04-0.36 0.29-0.21 0.24-0.41 0.2-0.2-0.04-0.28-0.86-0.09-0.81-0.09-2.11 0-1.3 0.09-1.95 0.08-0.65 0.16-0.73 0.08-0.08 0.16-0.08zm29.79 0.48q-0.04 0.29-0.08 0.57-0.04 0.29-0.08 0.57-0.03-0.16-0.05-0.32-0.04-0.33 0.09-0.57 0.06-0.12 0.12-0.25zm-26.94 0.74q0.85 0.85 1.71 1.7 1.71 1.71 2.28 2.56 0.57 0.86 0.81 1.47 0.25 0.61 0.9 1.71 0.65 1.09 1.5 2.03 0.86 0.93 3.14 2.11 2.27 1.18 3.01 1.71 0.36 0.26 0.73 0.53-0.96-0.49-1.91-0.98-1.92-0.97-2.85-1.3-0.94-0.32-1.59-0.97-0.65-0.65-0.89-1.06-0.25-0.41-1.02-1.06-0.77-0.65-1.3-1.3-0.53-0.65-1.02-1.5-0.49-0.86-1.95-2.73-1.47-1.87-1.51-2.4-0.02-0.26-0.04-0.52zm29.71 0.08q0.08 0.08 0.16 0.16 0.16 0.16 0.16 0.57 0 0.2 0 0.41-0.08-0.13-0.16-0.25-0.16-0.24-0.16-0.57 0-0.16 0-0.32zm4.55 0.24q0.02 0.12 0.04 0.24 0.04 0.25-0.2 0.53-0.12 0.15-0.24 0.29 0.1-0.27 0.2-0.53 0.1-0.26 0.2-0.53zm3.58 0.57q0.21 0.2 0.41 0.41 0.41 0.4 0.57 0.89 0.08 0.25 0.16 0.49-0.2-0.18-0.4-0.37-0.41-0.36-0.57-0.89-0.08-0.27-0.17-0.53zm-12.94 0.41q0.04 0.04 0.08 0.08 0.09 0.08-0.04 0.36-0.12 0.29-0.16 0.82-0.02 0.26-0.04 0.53-0.08-0.15-0.16-0.29-0.16-0.28-0.16-0.53 0-0.24 0.24-0.61 0.12-0.18 0.24-0.36zm3.58 0.57q0.17 0 0.33 0.24 0.08 0.12 0.16 0.24-0.08-0.06-0.16-0.12-0.16-0.12-0.41-0.12-0.24 0-0.28-0.08-0.02-0.04-0.04-0.08 0.06-0.02 0.12-0.04 0.12-0.04 0.28-0.04zm-1.38 0.32q0.12 0 0.24 0-0.08 0.08-0.16 0.16-0.08 0.09-0.16 0.17 0.1 0.06 0.2 0.12 0.21 0.12 0.21 0.4 0 0.29-0.82 0.37-0.4 0.04-0.81 0.08 0.1-0.18 0.2-0.36 0.21-0.37 0.45-0.49 0.24-0.12 0.33-0.29 0.08-0.16 0.32-0.16zm6.88 0.53q0.36 0.04 0.53 0.16 0.08 0.06 0.16 0.12-0.18 0.07-0.37 0.13-0.36 0.12-0.65 0.08-0.28-0.04-0.32-0.21-0.04-0.16 0.12-0.24 0.16-0.08 0.53-0.04zm-3.75 1.02q1.18 0 1.27 0.08 0.04 0.04 0.08 0.08-1.06 0.06-2.12 0.12-1.06 0.06-2.12 0.12 0.43-0.1 0.86-0.2 0.85-0.2 2.03-0.2zm-30.39 0.4q0.59 1.12 1.18 2.24 1.18 2.23 1.79 3.05 0.61 0.81 1.1 1.26 0.24 0.22 0.48 0.45-0.24-0.05-0.48-0.09-0.49-0.08-0.98 0.13-0.49 0.2-1.26-0.94-0.78-1.14-0.94-1.63-0.16-0.48-0.65-1.17-0.49-0.7-0.53-1.87-0.04-1.18 0.12-1.31 0.09-0.06 0.17-0.12zm36.38 0q0.04 0 0.08 0 0.08 0 0.16 0.21 0.08 0.2 0.08 0.57 0 0.18 0 0.36-0.08-0.04-0.16-0.08-0.16-0.08-0.16-0.57 0-0.24 0-0.49zm-4.89 0.29q1.71 0.12 1.79 0.24 0.04 0.06 0.08 0.12-1.99 0-3.98 0-2 0-3.99 0 0.02-0.06 0.04-0.12 0.04-0.12 2.2-0.24 2.15-0.12 3.86 0zm-32.84 0.2q0.06 0 0.13 0-0.02 0.2-0.04 0.41-0.03 0.2-0.05 0.4-0.22-0.06-0.44-0.12-0.23-0.06-0.45-0.12 0.18-0.14 0.37-0.28 0.36-0.29 0.48-0.29zm29.99 0.41q2.53 0 4.11 0.2 1.59 0.2 1.63 0.28 0.02 0.05 0.04 0.09-0.22 0-0.44 0-0.45 0-1.35-0.09-0.89-0.08-0.93 0.05-0.02 0.06-0.04 0.12 0.81 0.08 1.62 0.16 1.63 0.16 1.71 0.28 0.08 0.13 0.45 0.25 0.37 0.12 0.41 0.36 0.02 0.13 0.04 0.25-1.22-0.16-2.44-0.33-2.45-0.32-3.99-0.32-0.77 0-1.55 0 0.14-0.04 0.29-0.08 0.28-0.08 2.36-0.08 2.07 0 3.01 0.16 0.93 0.16 0.97 0.04 0.03-0.06 0.05-0.12-0.47-0.08-0.94-0.17-0.94-0.16-2.44-0.24-1.51-0.08-3.01-0.04-0.76 0.02-1.51 0.04 0.41-0.1 0.81-0.2 0.82-0.21 2.16-0.17 1.34 0.04 1.39-0.04 0.02-0.04 0.04-0.08-1.14-0.04-2.28-0.08-2.28-0.08-2.81 0-0.27 0.04-0.53 0.08 0-0.06 0-0.12 0-0.12 0.33-0.16 0.32-0.04 2.84-0.04zm-30.84 0.48q0.24 0.05 0.49 0.09 0.49 0.08 0.49 0.16 0 0.04 0 0.08-0.25-0.08-0.49-0.16-0.25-0.08-0.49-0.17zm28.24 0.37q0.12 0.02 0.24 0.04-0.2 0.02-0.4 0.04-0.21 0.02-0.41 0.04 0.08-0.04 0.16-0.08 0.17-0.08 0.41-0.04zm11.88 0.61q0.1 0.2 0.21 0.41 0.1 0.2 0.2 0.4-0.1-0.1-0.2-0.2-0.21-0.2-0.21-0.41 0-0.1 0-0.2zm-9.15 0.08q1.99 0 4.51 0.53 1.26 0.26 2.53 0.53-0.11 0.06-0.21 0.12-0.2 0.12-0.61-0.04-0.4-0.16-3.29-0.49-2.89-0.32-4.48-0.16-1.59 0.16-1.63-0.04-0.02-0.1-0.04-0.2 0.31-0.07 0.61-0.13 0.61-0.12 2.61-0.12zm-30.56 0.08q0.16 0.04 0.32 0.08 0.33 0.09 0.57 0.66 0.12 0.28 0.25 0.56-0.11-0.02-0.21-0.04-0.2-0.04-0.57-0.65-0.18-0.3-0.36-0.61zm31.17 1.02q0.81 0.04 0.81 0.24 0 0.21-0.53 0.53-0.53 0.33-0.85 0.82-0.33 0.48-0.29 0.89 0.04 0.41 0.33 0.45 0.28 0.04 0.28 0.65 0 0.61-0.2 0.85-0.2 0.25-0.73 0.45-0.53 0.2-1.02 0.77-0.24 0.29-0.49 0.57-0.14-0.45-0.28-0.89-0.15-0.45-0.29-0.9 0.25-0.02 0.49-0.04 0.49-0.04 0.81 0.12 0.33 0.17 0.65 0.17 0.33 0 0.45-0.13 0.12-0.12 0.08-0.44-0.04-0.33-0.57-1.02-0.53-0.69-0.4-0.89 0.12-0.21 0.12-0.66 0-0.44 0.41-1.01 0.4-0.57 1.22-0.53zm-3.06 0.04q0.11 0 0.21 0-0.06 0.2-0.12 0.41-0.13 0.4 0.16 0.73 0.14 0.16 0.28 0.32-0.18-0.02-0.36-0.04-0.37-0.04-0.53 0.08-0.08 0.07-0.16 0.13-0.02-0.15-0.04-0.29-0.05-0.28 0.16-0.81 0.2-0.53 0.4-0.53zm6.23 0.24q0.41 0.07 0.81 0.13 0.82 0.12 0.86 1.34 0.04 1.22-0.29 1.71-0.16 0.24-0.32 0.48 0.04 0.02 0.08 0.04 0.08 0.04 0.57-0.48 0.49-0.53 0.53-0.78 0.02-0.12 0.04-0.24 0.02 0.28 0.04 0.57 0.04 0.57-0.41 0.97-0.44 0.41-0.65 0.74-0.2 0.32-0.57 0.57-0.36 0.24-1.18 0.48-0.4 0.13-0.81 0.25 0.3-0.35 0.61-0.69 0.61-0.69 1.02-1.67 0.4-0.98 0.4-1.79 0-0.81-0.36-1.22-0.19-0.2-0.37-0.41zm4.23 0.09q0.33 0 0.53 0.24 0.21 0.24 0.21 0.61 0 0.37-0.45 0.69-0.23 0.16-0.45 0.33 0.06-0.15 0.12-0.29 0.12-0.28 0.12-0.61 0-0.32-0.24-0.53-0.24-0.2-0.37-0.16-0.06 0.02-0.12 0.04 0.08-0.08 0.16-0.16 0.17-0.16 0.49-0.16zm-37.6 0.24q0.12 0.02 0.25 0.04 0.24 0.04 0.36 0.41 0.13 0.36 0.17 1.34 0.04 0.97-0.21 1.95-0.24 0.98-0.53 1.02-0.14 0.02-0.28 0.04 0.08-0.69 0.16-1.39 0.16-1.38 0.12-2.39-0.02-0.51-0.04-1.02zm-1.14 0.73q0.04 0.18 0.08 0.37 0.09 0.36 0.05 1.3-0.02 0.47-0.05 0.93-0.16-0.02-0.32-0.04-0.33-0.04-0.57 0.17-0.12 0.1-0.24 0.2 0.06-0.27 0.12-0.53 0.12-0.53 0.53-1.46 0.2-0.47 0.4-0.94zm3.1 1.63q0.22 0.32 0.44 0.65 0.45 0.65-0.08 1.06-0.26 0.2-0.53 0.4 0.04-0.53 0.08-1.06 0.05-0.52 0.09-1.05zm24.66 0.4q0.44 0 0.89 0 0.45 0 0.9 0 0 0.04 0 0.09 0 0.08-0.9 0.12-0.45 0.02-0.89 0.04 0-0.06 0-0.12 0-0.06 0-0.13zm12.45 0.49q0.04 0.02 0.08 0.04 0.04 0.02 0.08 0.04-0.06 0.06-0.12 0.13-0.12 0.12-0.41 0.2-0.14 0.04-0.28 0.08 0-0.06 0-0.12 0-0.12 0.28-0.16 0.29-0.05 0.33-0.13 0.02-0.04 0.04-0.08zm-34.51 0.29q0.12 0.06 0.24 0.12-0.22 0.14-0.44 0.28-0.45 0.29-0.9 0.82-0.45 0.52-0.41 0.81 0.05 0.28 0.21 0.41 0.08 0.06 0.16 0.12-0.24-0.08-0.49-0.16-0.49-0.17-0.93-0.17-0.45 0-1.1 0.25-0.65 0.24-1.1 0.57-0.45 0.32-0.81 1.05-0.19 0.37-0.37 0.73-0.1-0.26-0.2-0.52-0.21-0.53-0.66-0.78-0.44-0.24-0.85-0.2-0.41 0.04-1.02 0.49-0.61 0.45-0.93 0.89-0.33 0.45-2.08 2.2-1.75 1.75-2.2 2.07-0.44 0.33-0.73 0.37-0.14 0.02-0.28 0.04 0-0.04 0-0.08 0-0.08 0.65-0.57 0.65-0.49 0.97-0.86 0.33-0.36 0.33-0.48 0-0.13 0.45-0.49 0.45-0.37 1.42-1.55 0.98-1.18 2-2.11 1.01-0.94 1.58-1.14 0.57-0.2 1.96-0.16 1.38 0.04 2.07-0.04 0.69-0.08 1.22-0.37 0.53-0.28 1.26-0.97 0.74-0.7 0.98-0.57zm1.14 0.2q0.14 0.12 0.28 0.24 0.29 0.25 0.33 0.74 0.02 0.24 0.04 0.48-0.12 0-0.24 0-0.25 0-0.33-0.73-0.04-0.36-0.08-0.73zm0.98 0.16q0.48 0.37 0.97 0.73 0.98 0.74 1.43 0.9 0.44 0.16 0.4 0.57-0.04 0.4-0.4 0.89-0.19 0.25-0.37 0.49-0.32-0.28-0.65-0.57-0.65-0.57-0.61-0.81 0.04-0.25-0.2-0.49-0.25-0.24-0.25-0.65 0-0.41-0.16-0.73-0.08-0.16-0.16-0.33zm-1.75 0.45q0.12 0.04 0.16 0.28 0.04 0.25 0.04 0.53 0 0.15 0 0.29-0.06 0-0.12 0-0.06 0-0.12 0 0 0.08 0 0.16 0 0.08 0 0.16-0.27-0.06-0.53-0.12-0.53-0.12-0.57-0.2-0.04-0.08 0.08-0.25 0.12-0.16 0.53-0.52 0.4-0.37 0.53-0.33zm35.28-0.04q0 0.2 0 0.41 0 0.4-0.33 0.85-0.16 0.22-0.32 0.45 0.04-0.27 0.08-0.53 0.08-0.53 0.32-0.86 0.13-0.16 0.25-0.32zm0.49 0.08q0.04 0.04 0.08 0.08 0.08 0.08 0.08 0.41 0 0.32-0.12 0.73-0.13 0.41-0.41 0.57-0.14 0.08-0.29 0.16 0.17-0.32 0.33-0.65 0.33-0.65 0.33-0.97 0-0.17 0-0.33zm-5.86 0.49q0.08 0.14 0.16 0.28 0.16 0.29 0.61 0.69 0.45 0.41 0.81 2.52 0.37 2.12 1.02 2.65 0.65 0.53 0.94 0.93 0.28 0.41 0.73 0.69 0.22 0.15 0.45 0.29-0.66 0.28-1.31 0.57-1.3 0.57-2.84 0.53-1.55-0.04-2.28-0.21-0.74-0.16-1.1-1.05-0.37-0.9-0.57-1.14-0.21-0.25-0.37-0.29-0.16-0.04-0.36 0.08-0.21 0.13-0.25 0.86-0.04 0.73-0.12 0.81-0.04 0.04-0.08 0.08 0.04-0.45 0.08-0.89 0.08-0.9 0.04-2.24-0.04-1.34 0.41-1.87 0.44-0.53 0.73-0.57 0.28-0.04 0.53 0.04 0.24 0.08 0.45 0.29 0.2 0.2 0.48 0.69 0.29 0.49 0.45 1.26 0.16 0.77 0.17 1.87-0.01 1.1 0.12 1.46 0.12 0.37 0.65 0.41 0.53 0.04 0.97-0.12 0.45-0.17 0.49-0.82 0.04-0.65-0.08-1.34-0.12-0.69-0.16-2.31-0.04-1.63-0.33-1.96-0.28-0.32-0.85-0.52-0.29-0.11-0.57-0.21 0.24-0.36 0.49-0.73 0.24-0.37 0.49-0.73zm-24.58 0.24q0.16 0.08 0.32 0.16 0.33 0.17 0.69 0.21 0.19 0.02 0.37 0.04-0.28 0.57-0.57 1.14-0.57 1.14-0.85 1.42-0.29 0.28-0.74 0.45-0.44 0.16-1.18 0.08-0.36-0.04-0.73-0.08 0.14-0.08 0.29-0.17 0.28-0.16 0.61-0.2 0.32-0.04 0.73-0.45 0.41-0.4 0.61-0.85 0.2-0.45 0.33-1.1 0.06-0.32 0.12-0.65zm-16.36 1.67q0.04 0.02 0.08 0.04-0.04 0.06-0.08 0.12-0.08 0.12-0.45 0.16-0.36 0.05-0.73 0.33-0.37 0.28-0.45 0.89-0.08 0.61-0.69 1.18-0.31 0.29-0.61 0.57 0.14-0.26 0.28-0.53 0.29-0.52 0.33-1.05 0.04-0.53 0.28-0.9 0.25-0.36 0.45-0.49 0.21-0.12 0.86-0.24 0.65-0.12 0.73-0.08zm24.9 0.08q0.04 0.02 0.08 0.04-0.34 0.63-0.69 1.26-0.34 0.63-0.69 1.26 0.08-0.3 0.16-0.61 0.17-0.61 0.61-1.3 0.45-0.69 0.53-0.65zm-11.84 0.29q0.12-0.01 0.37 0.24 0.12 0.12 0.24 0.24-0.24-0.06-0.49-0.12-0.48-0.12-0.53-0.2-0.02-0.04-0.04-0.08 0.08-0.02 0.17-0.04 0.16-0.04 0.28-0.04zm12.58 0q0.06 0.06 0.12 0.12 0.12 0.12-0.25 0.65-0.36 0.53-0.61 1.22-0.24 0.69-0.85 1.83-0.31 0.57-0.61 1.14 0.2-0.59 0.4-1.18 0.41-1.18 1.1-2.48 0.35-0.65 0.7-1.3zm18.88 0q0.14 0.02 0.28 0.04 0.29 0.04 0.45 0.24 0.16 0.2 0.16 0.37 0 0.08 0 0.16-0.14-0.04-0.28-0.08-0.29-0.08-0.45-0.25-0.16-0.16-0.16-0.32 0-0.08 0-0.16zm-19.54 0.24q-0.36 0.87-0.73 1.75-0.73 1.75-0.77 2.03-0.04 0.28-0.33 0.73-0.14 0.23-0.28 0.45 0.3-0.85 0.61-1.71 0.61-1.71 1.06-2.48 0.22-0.38 0.44-0.77zm1.14 0.08q0.06 0.04 0.13 0.08 0.12 0.08-0.7 1.71-0.4 0.81-0.81 1.63 0.14-0.49 0.28-0.98 0.29-0.98 0.7-1.71 0.2-0.36 0.4-0.73zm-8.95 0.33q0.47 0.4 0.94 0.81 0.93 0.81 1.06 1.3 0.06 0.24 0.12 0.49-0.67-0.43-1.35-0.86-0.67-0.42-1.34-0.85 0.14-0.22 0.29-0.45 0.14-0.22 0.28-0.44zm10.66 0.65q0.9 0.08 1.71 0.4 0.82 0.33 0.94 0.65 0.12 0.33 0.12 0.78 0 0.44-0.33 1.01-0.32 0.57-0.65 0.77-0.32 0.21-1.01 0.25-0.7 0.04-1.39-1.26-0.69-1.3-0.49-1.99 0.21-0.7 1.1-0.61zm-14.08 0.73q0.29 0.04 0.57 0.08 0.57 0.08 0.9 0 0.16-0.04 0.32-0.08 0 0.08 0 0.16 0 0.16-0.12 0.37-0.12 0.2-0.49 0.28-0.36 0.08-0.73-0.12-0.37-0.2-0.41-0.45-0.02-0.12-0.04-0.24zm31.99 0.89q0.14 0.14 0.28 0.29 0.14 0.14 0.29 0.28-0.12-0.04-0.25-0.08-0.24-0.08-0.28-0.28-0.02-0.11-0.04-0.21zm-22.79 0.98q-0.1 0.38-0.2 0.77-0.21 0.77-0.33 0.77-0.06 0-0.12 0 0.16-0.38 0.32-0.77 0.17-0.39 0.33-0.77zm11.31 0.77q0.65 0.12 1.14 0.08 0.25-0.02 0.49-0.04 0.04 0.53 0.08 1.06 0.08 1.06-0.24 1.18-0.33 0.12-0.41 0.28-0.08 0.16 0.29 0.73 0.36 0.57 1.01 0.49 0.65-0.08 1.83-0.53 1.18-0.44 2.85-0.36 1.67 0.08 2.4-0.04 0.37-0.06 0.74-0.13-0.64 0.39-1.27 0.78-1.26 0.77-1.99 0.93-0.73 0.16-0.81 0.25-0.09 0.08-0.04 0.2 0.02 0.06 0.04 0.12 0.99-0.32 1.99-0.65 1.99-0.65 3.5-1.46 1.51-0.82 1.71-0.82 0.2 0 0.77 0.25 0.57 0.24 1.51 0.85 0.93 0.61 1.67 1.47 0.73 0.85 1.34 1.87 0.61 1.01 1.02 2.23 0.4 1.22 0.08 1.38-0.17 0.09-0.33 0.17-0.12-0.31-0.24-0.61-0.25-0.61-0.69-1.3-0.45-0.7-1.22-1.59-0.78-0.89-1.23-1.1-0.44-0.2-0.93-0.2-0.49 0-0.86 0.16-0.36 0.16-0.69 0.49-0.32 0.32-0.69 0.93-0.37 0.61-0.57 0.78-0.2 0.16-0.53 0.2-0.32 0.04-0.36 0.2-0.05 0.17 0 0.25 0.04 0.08 1.05 0.04 1.02-0.04 1.51 0.16 0.49 0.2 1.06 0.81 0.57 0.61 1.1 1.59 0.26 0.49 0.52 0.98-0.2 0.1-0.4 0.2-0.21 0.1-0.41 0.2-0.22-0.49-0.45-0.97-0.44-0.98-0.73-1.3-0.28-0.33-0.65-0.53-0.37-0.21-1.18-0.25-0.81-0.04-1.91 0.41-1.1 0.45-1.79 1.02-0.7 0.56-0.86 1.05-0.16 0.49 0.16 0.98 0.33 0.49 0.66 0.61 0.32 0.12 0.61 0.36 0.28 0.25 0.4 1.02 0.13 0.77 0 0.98-0.06 0.1-0.12 0.2-0.2-0.22-0.41-0.45-0.4-0.44-1.01-1.79-0.61-1.34-1.1-1.99-0.49-0.65-1.02-1.62-0.53-0.98-1.26-1.67-0.37-0.35-0.73-0.69 0.36-0.12 0.73-0.25 0.73-0.24 1.46-1.09 0.74-0.86 1.35-1.26 0.61-0.41 0.61-0.53 0-0.06 0-0.13-0.23 0.03-0.45 0.05-0.45 0.04-1.79 0.48-1.34 0.45-1.87 0.73-0.53 0.29-0.82 0.7-0.28 0.4-1.71 0.16-1.42-0.25-1.5-0.53-0.08-0.28-0.25-0.45-0.16-0.16-1.62-0.89-0.74-0.37-1.47-0.73 0.29-0.23 0.57-0.45 0.57-0.45 0.78-0.69 0.2-0.25 0.16-0.41-0.04-0.16-0.16-0.16-0.13 0-0.37 0.28-0.25 0.29-0.73 0.45-0.49 0.16-0.94 0.16-0.45 0-0.65-0.16-0.1-0.08-0.2-0.16 0.22-0.29 0.44-0.57 0.45-0.57 1.55-1.02 1.1-0.44 1.34-0.69 0.25-0.24 0.37-0.53 0.12-0.28 0.77-0.16zm14.12-0.04q0.06 0.04 0.12 0.08-0.12 0.06-0.24 0.12-0.24 0.13-0.37 0.41-0.12 0.28-0.24 0.32-0.06 0.03-0.12 0.05 0.04-0.15 0.08-0.29 0.08-0.28 0.37-0.53 0.28-0.24 0.4-0.16zm-21.77 0.16q0.33 0.49 0.65 0.98 0.33 0.49 0.65 0.97-0.24-0.3-0.48-0.61-0.49-0.61-0.66-0.97-0.08-0.18-0.16-0.37zm-1.02 0.98q0.29 0.08 0.57 0.4 0.29 0.33 0.45 0.98 0.16 0.65 0.08 1.02-0.04 0.18-0.08 0.36-0.43-0.38-0.85-0.77-0.86-0.77-0.65-1.42 0.2-0.65 0.48-0.57zm-30.56 0.49q0.13 0.06 0.25 0.12 0.24 0.12 0.69 0.12 0.22 0 0.45 0 0 0.04 0 0.08 0 0.08-0.16 0.29-0.17 0.2-0.41 0.2-0.25 0-0.49-0.16-0.24-0.17-0.28-0.41-0.03-0.12-0.05-0.24zm52.42 0.81q-0.33 0.08-0.82 0.49-0.49 0.4-0.69 0.81-0.2 0.41-0.16 0.65 0.04 0.24 0.2 0.24 0.16 0 0.49-0.28 0.33-0.28 0.85-0.41 0.53-0.12 0.86-0.32 0.32-0.2 0.37-0.45 0.04-0.24-0.05-0.41-0.08-0.16-0.4-0.28-0.33-0.12-0.65-0.04zm-32.88 0.97q0.24 6.67 0.49 13.34 0.24 6.67 0.48 13.34-1.54 0-3.09 0-1.55 0-3.09 0 1.3-6.67 2.6-13.34 1.3-6.67 2.61-13.34zm0.97 0.25q1.39 6.26 2.77 12.52 2.77 12.52 2.85 13.05 0.08 0.53-0.04 0.57-0.12 0.04-2.4 0.12-1.14 0.04-2.28 0.08-0.22-6.58-0.45-13.17-0.22-6.58-0.45-13.17zm11.4 0.97q0.63 0.07 1.26 0.13 1.26 0.12 1.83 0.28 0.57 0.16 0.9 0.37 0.32 0.2 0.97 0.32 0.65 0.12 0.65 0.21 0 0.04 0 0.08-0.61 0-1.22 0-1.22 0-2.4-0.29-0.59-0.14-1.18-0.28 0 0.06 0 0.12 0 0.12 0.12 0.2 0.13 0.08 1.79 0.57 0.84 0.25 1.67 0.49-0.57 0.08-1.14 0.16-1.14 0.17-2.11 0.17-0.98 0-1.02 0.12-0.02 0.06-0.04 0.12 0.73 0.04 1.46 0.08 1.47 0.08 1.59 0.16 0.12 0.08 0.12 0.41 0 0.32-0.16 0.45-0.16 0.12-0.77 0.2-0.61 0.08-1.59-0.04-0.98-0.12-1.02 0.12-0.04 0.25 0.41 1.02 0.45 0.77 0.49 1.34 0.04 0.57-0.16 1.38-0.21 0.82 0.04 0.94 0.24 0.12 2.56-2.44 1.16-1.28 2.32-2.56-0.51 0.63-1.02 1.26-1.02 1.26-1.34 1.95-0.33 0.69-1.47 1.87-0.57 0.59-1.14 1.18 0.05 0.02 0.09 0.04 0.08 0.04 0.32-0.12 0.25-0.17 0.86-0.7 0.3-0.26 0.61-0.52-0.06 0.34-0.13 0.69-0.12 0.69-0.48 1.3-0.37 0.61-0.37 0.77 0 0.08 0 0.16 0.06 0 0.12 0 0.12 0 1.14-1.34 0.51-0.67 1.02-1.34-0.06 0.28-0.12 0.57-0.13 0.57-0.13 1.18 0 0.61 0.37 1.87 0.37 1.26 0.9 2.15 0.52 0.9 1.09 1.55 0.29 0.32 0.57 0.65-0.4 0.06-0.81 0.12-0.81 0.12-1.87-0.81-1.06-0.94-1.87-1.3-0.82-0.37-1.06-1.39-0.25-1.01-0.33-2.68-0.08-1.67-0.57-2.32-0.49-0.65-0.77-1.62-0.28-0.98-0.28-1.47 0-0.48 0.12-0.93 0.12-0.45 0.69-1.26 0.57-0.81 0.77-1.38 0.21-0.57-0.04-1.26-0.12-0.35-0.24-0.7zm-31.17 0.74q0.04 0.1 0.08 0.2 0.08 0.2 0.41 12.93 0.16 6.36 0.32 12.72-1.24 0.04-2.48 0.09-1.24 0.04-2.48 0.08 1.03-6.51 2.07-13.01 1.04-6.51 2.08-13.01zm37.8 0.81q0.29 0 0.33 0.2 0.04 0.21-0.09 0.33-0.12 0.12-0.52 0.16-0.21 0.02-0.41 0.04 0-0.08 0-0.16 0-0.16 0.2-0.37 0.21-0.2 0.49-0.2zm1.18 1.06q0.59 0.1 1.18 0.2 1.18 0.2 1.51 0.37 0.32 0.16 1.05 0.89 0.74 0.73 1.35 1.87 0.61 1.14 1.1 1.79 0.48 0.65 1.09 2.03 0.61 1.38 1.55 2.44 0.94 1.06 1.83 1.3 0.9 0.25 1.67 0.12 0.39-0.06 0.77-0.12-0.02 0.06-0.04 0.12-0.04 0.13-0.16 0.25-0.12 0.12-1.06 0.28-0.93 0.17-1.34 0.12-0.41-0.04-2.24-2.35-1.83-2.32-3.21-4.96-1.39-2.65-1.96-3.05-0.57-0.41-1.67-0.65-1.09-0.25-1.26-0.45-0.08-0.1-0.16-0.2zm-37.93 0.16q0.11 0.32 0.21 0.65 0.2 0.65 2.56 11.99 1.18 5.67 2.36 11.35-0.95-0.02-1.91-0.04-1.91-0.04-2.24-0.09-0.32-0.04-0.36-0.2-0.05-0.16-0.33-11.91-0.14-5.88-0.29-11.75zm36.79 0.04q0.08 0.04-0.12 0.73-0.2 0.69-0.2 1.51 0 0.81 0.52 2.35 0.53 1.55 0.82 2 0.28 0.44 1.14 1.3 0.85 0.85 1.79 1.38 0.47 0.26 0.93 0.53-0.06 0.02-0.12 0.04-0.12 0.04-0.57-0.16-0.45-0.21-1.63-1.1-1.18-0.9-1.54-1.02-0.18-0.06-0.37-0.12 0.14 0.37 0.29 0.73 0.28 0.73 1.1 1.71 0.4 0.49 0.81 0.98-0.33-0.33-0.65-0.66-0.65-0.65-1.3-1.58-0.65-0.94-1.14-2.07-0.49-1.14-0.57-2.93-0.08-1.79 0.12-2.68 0.2-0.9 0.41-0.94 0.2-0.04 0.28 0zm0.33 1.83q0.2 0.37 0.4 0.73 0.41 0.73 1.02 1.38 0.61 0.65 1.06 1.3 0.22 0.33 0.45 0.66-0.04-0.17-0.08-0.33-0.09-0.33-0.82-1.26-0.73-0.94-0.89-1.42-0.17-0.49-0.17-0.61 0-0.13 0.13-0.21 0.12-0.08 0.69-0.16 0.28-0.04 0.57-0.08-0.02 0.37-0.04 0.73-0.04 0.73 0.2 1.59 0.24 0.85 0.61 1.42 0.37 0.57 0.9 1.14 0.26 0.28 0.52 0.57-0.44 0-0.89 0-0.9 0-1.43-0.29-0.52-0.28-0.77-0.61-0.24-0.32-0.69-1.34-0.45-1.01-0.61-1.62-0.16-0.61-0.16-1.1 0-0.25 0-0.49zm20.99 1.54q0.17 0 0.21 0.13 0.04 0.12-0.65 0.4-0.7 0.29-1.79 1.14-1.1 0.86-1.88 1.18-0.38 0.16-0.77 0.33 0.02-0.07 0.04-0.13 0.04-0.12 0.53-0.32 0.49-0.2 1.59-1.06 1.1-0.85 1.83-1.26 0.73-0.41 0.89-0.41zm-22.7 0.33q0.1 0.93 0.2 1.87 0.2 1.87 0.81 3.29 0.62 1.43 1.39 2.28 0.77 0.85 1.26 1.22 0.49 0.37 0.81 0.49 0.33 0.12 0.98 0.65 0.33 0.26 0.65 0.53-0.32-0.04-0.65-0.09-0.65-0.08-1.14-0.36-0.49-0.29-1.22-1.02-0.73-0.73-1.34-1.54-0.61-0.82-1.1-1.91-0.49-1.1-0.61-2.28-0.12-1.18-0.25-1.22-0.12-0.04 0.04-0.98 0.09-0.46 0.17-0.93zm22.38 0.37q0.04 0.02 0.08 0.04-0.04 0.04-0.08 0.08-0.08 0.08-0.49 0.32-0.41 0.25-1.75 1.51-1.34 1.26-1.55 1.34-0.2 0.08-0.28 0-0.08-0.08-0.12-0.2-0.04-0.13 0.24-0.25 0.29-0.12 1.71-1.3 1.42-1.18 1.79-1.38 0.37-0.21 0.45-0.16zm-15.38 0.12q0.2 0.36 0.4 0.73 0.41 0.73 0.49 0.73 0.08 0 0.33 0.65 0.24 0.65 0.61 1.1 0.36 0.45 0.36 0.73 0 0.29-0.08 0.37-0.08 0.08-0.4 0.08-0.33 0-0.94-0.37-0.61-0.36-1.38-1.34-0.39-0.49-0.78-0.97 0.21-0.03 0.41-0.05 0.41-0.04 0.61-0.2 0.2-0.16 0.29-0.81 0.04-0.33 0.08-0.65zm16.4 0.08q0.12 0.08 0.08 0.16-0.04 0.08-1.39 0.73-0.67 0.33-1.34 0.65 0.16-0.16 0.33-0.32 0.32-0.33 1.26-0.81 0.93-0.49 1.06-0.41zm0.24 0.49q0.06 0.08 0.12 0.16-0.14 0.04-0.28 0.08-0.29 0.08-1.43 0.81-1.14 0.74-1.87 1.43-0.73 0.69-1.06 0.85-0.16 0.08-0.32 0.16 0.24-0.18 0.49-0.36 0.48-0.37 1.3-1.22 0.81-0.86 1.87-1.47 1.06-0.61 1.18-0.44zm-6.55 0.48q0.04 0.09 0.08 0.17 0.08 0.16-0.12 0.36-0.21 0.21-0.21 0.45 0 0.24 0.45 1.18 0.45 0.93 0.82 1.34 0.36 0.41 0.77 0.33 0.41-0.09 1.06 1.22 0.65 1.3 1.62 2.76 0.98 1.46 1.84 2.48 0.85 1.02 1.01 1.46 0.17 0.45 0.21 1.18 0.04 0.74 0.32 1.63 0.29 0.89 2.28 4.39 2 3.5 2.97 6.22 0.98 2.72 1.1 4.68 0.12 1.95-0.16 3.09-0.29 1.13-0.37 2.23-0.08 1.1 0.37 1.51 0.22 0.2 0.44 0.4-0.2 0.21-0.4 0.41-0.41 0.41-1.34 0.04-0.94-0.37-1.59-0.37-0.65 0-1.1 0.29-0.45 0.28-0.53 0.61-0.08 0.32 0 0.65 0.08 0.32 0.73 1.1 0.65 0.77 0.78 1.18 0.12 0.4-0.09 0.97-0.2 0.57-0.61 1.06-0.4 0.49-0.48 0.73-0.09 0.24-0.21 0.29-0.12 0.04-0.12 0.2 0 0.08 0 0.16-0.1 0-0.2 0-0.21 0-0.45 0.37-0.24 0.36-0.24 0.61 0 0.24 0.56 0.69 0.29 0.22 0.57 0.44-0.38 0.29-0.77 0.57-0.77 0.57-1.22 1.59-0.22 0.51-0.45 1.02-0.28-0.31-0.57-0.61-0.57-0.61-1.5-1.14-0.94-0.53-1.51-0.69-0.57-0.17-1.26-0.78-0.69-0.61-1.06-1.13-0.36-0.53-0.4-1.26-0.04-0.74-0.21-1.1-0.16-0.37-0.16-0.53 0-0.16 0.12-0.24 0.12-0.09 0.25-0.41 0.12-0.33 0.12-1.3 0-0.98 0.28-2.12 0.29-1.13 0.41-2.27 0.12-1.14 0-4.03-0.12-2.88-0.45-5-0.16-1.06-0.32-2.11 0.48 0.08 0.97 0.16 0.98 0.16 1.26-0.08 0.29-0.25 0.29-0.57 0-0.33-0.29-0.73-0.28-0.41-0.61-0.61-0.32-0.21-0.57-0.9-0.24-0.69-0.81-1.38-0.57-0.69-0.57-1.38 0-0.69-0.28-1.3-0.29-0.61-0.29-0.98 0-0.36 0.2-0.65 0.21-0.28 0.41-0.85 0.21-0.57 0.16-1.02-0.04-0.45-0.36-0.81-0.33-0.37-1.39-1.06-1.05-0.69-1.3-1.34-0.24-0.65-0.24-1.18 0-0.53 0.32-0.57 0.33-0.04 0.49-0.16 0.16-0.12 0.04-1.38-0.12-1.26 0.21-1.63 0.32-0.37 0.65-0.57 0.32-0.2 0.49-0.49 0.16-0.28-0.25-1.3-0.41-1.01-0.45-1.5-0.04-0.49 0.09-1.02 0.12-0.53 0.44-1.1 0.17-0.28 0.33-0.57zm6.59 0.82q0.08 0 0.45 0.69 0.36 0.69 1.34 2.07 0.98 1.38 1.91 3.09 0.94 1.71 1.84 2.81 0.89 1.1 1.7 2.68 0.82 1.59 1.06 2.28 0.25 0.69 1.1 4.96 0.86 4.27 1.3 5.89 0.23 0.82 0.45 1.63-0.26-0.63-0.53-1.26-0.53-1.26-1.34-4.72-0.82-3.45-1.02-3.82-0.2-0.37-1.26-1.34-1.06-0.98-1.59-2.11-0.53-1.14-0.65-1.18-0.06-0.02-0.12-0.04-0.02 0.08-0.04 0.16-0.04 0.16 0.2 0.81 0.25 0.65 0.82 3.25 0.57 2.61 1.38 4.52 0.81 1.91 1.42 3.7 0.61 1.78 0.7 2.23 0.08 0.45 0.04 2.12-0.04 1.66 0.16 2.48 0.2 0.81 0.08 2.23-0.06 0.71-0.12 1.43-0.06-0.13-0.12-0.25-0.13-0.24-0.13-2.36 0-2.11-0.28-3.57-0.29-1.47-1.3-4.19-1.02-2.73-1.47-3.5-0.45-0.77-0.69-1.71-0.24-0.93-0.65-1.95-0.41-1.01-0.53-2.07-0.12-1.06-0.32-1.83-0.21-0.77-0.62-1.38-0.4-0.61-0.97-0.9-0.57-0.28-0.78-0.73-0.2-0.45-1.01-1.42-0.82-0.98-1.87-2.52-1.06-1.55-1.63-2.56-0.57-1.02-0.49-1.18 0.08-0.17 0.49-0.41 0.2-0.12 0.41-0.24 0.59 1.09 1.18 2.19 1.18 2.2 1.62 3.25 0.45 1.06 0.86 1.59 0.4 0.53 0.69 0.69 0.28 0.16 0.53 0.12 0.24-0.04 0.32-0.16 0.08-0.12 0.08-0.69 0.01-0.57 0.17-1.1 0.16-0.53 0.16-0.93 0-0.41-0.2-0.86-0.21-0.44-1.83-2.84-1.63-2.4-1.31-2.73 0.33-0.32 0.41-0.32zm-8.22 0.32q0.02 0.45 0.04 0.9 0.04 0.89-0.12 0.93-0.16 0.04-0.77 0.65-0.31 0.31-0.61 0.61 0.1-0.42 0.2-0.85 0.2-0.85 0.73-1.55 0.27-0.34 0.53-0.69zm-15.95 0.25q0.06 0.2 0.12 0.4 0.12 0.41 0.12 2 0 1.58 0.21 2.23 0.2 0.65 0.65 1.06 0.45 0.41 0.89 0.49 0.45 0.08 0.94 0.73 0.49 0.65 0.85 0.81 0.37 0.16 0.65 0.16 0.29 0 0.33 0.53 0.02 0.27 0.04 0.53-0.22-0.06-0.45-0.12-0.44-0.12-1.01-0.53-0.57-0.41-1.35-1.22-0.77-0.81-1.26-1.5-0.49-0.69-0.69-1.43-0.2-0.73-0.12-2.44 0.04-0.85 0.08-1.7zm9.44 4.71q0.96 0.23 1.91 0.45 1.92 0.45 2.65 1.14 0.36 0.34 0.73 0.69-0.96-0.31-1.91-0.61-1.91-0.61-2.65-1.14-0.36-0.26-0.73-0.53zm-3.83 0.9q0.64 0.36 1.27 0.73 1.26 0.73 1.95 0.97 0.69 0.25 1.95 0.41 0.63 0.08 1.26 0.16 0-0.1 0-0.2 0-0.2-1.01-0.53-1.02-0.32-1.83-0.73-0.82-0.41-0.82-0.49 0-0.04 0-0.08 0.41 0.18 0.82 0.37 0.81 0.36 2.03 0.65 1.22 0.28 1.91 0.57 0.69 0.28 0.74 0.44 0.04 0.17-0.25 0.37-0.28 0.2-1.02 0.28-0.73 0.09-1.79-0.04-1.05-0.12-2.07-0.48-1.02-0.37-1.22-0.61-0.21-0.25-0.65-0.53-0.45-0.29-0.86-0.77-0.2-0.25-0.41-0.49zm-9.76 0.97q0.32 0 0.65 0 0.65 0 1.99 0.86 1.35 0.85 2.36 0.61 1.02-0.25 1.22 0.04 0.11 0.14 0.21 0.28-0.63 0.02-1.26 0.04-1.26 0.04-1.71-0.16-0.45-0.2-1.18-0.77-0.73-0.57-1.51-0.73-0.38-0.09-0.77-0.17zm9.6 1.47q0.49 0.08 0.98 0.16 0.98 0.16 1.55 0.41 0.28 0.12 0.56 0.24-0.73-0.02-1.46-0.04-1.47-0.04-1.55-0.08-0.08-0.04-0.08-0.37 0-0.16 0-0.32zm-9.19 0.4q0.22 0.06 0.44 0.13 0.45 0.12 0.65 0.28 0.21 0.16 0.66 0.24 0.44 0.09 1.54 0.09 1.1 0 2.32-0.17 1.22-0.16 1.55 0.08 0.16 0.13 0.32 0.25-0.73 0.06-1.46 0.12-1.47 0.12-3.5 0.12-1.02 0-2.04 0 0-0.12 0-0.24 0-0.25-0.24-0.57-0.12-0.16-0.24-0.33zm9.23 1.06q1.18 0 1.22 0.08 0.02 0.04 0.04 0.08-0.3 0.06-0.61 0.13-0.61 0.12-2.48 0.36-1.87 0.25-4.35 0.33-1.24 0.04-2.48 0.08 0-0.08 0-0.17 0-0.16 1.13-0.2 1.14-0.04 3.75-0.36 2.6-0.33 3.78-0.33zm-7.2 1.26q0.41 0.02 0.81 0.04-0.55 0.04-1.09 0.08-0.55 0.04-1.1 0.08 0-0.04 0-0.08 0-0.08 0.28-0.12 0.29-0.04 1.1 0zm5.82 0.33q0.37 0.04 0.69 0.57 0.33 0.52 0.33 1.01 0 0.49-0.13 0.65-0.12 0.16-0.4 0.12-0.29-0.04-0.73-0.73-0.45-0.69-0.57-1.1-0.07-0.2-0.13-0.4 0.15-0.04 0.29-0.08 0.28-0.08 0.65-0.04zm-1.67 0.12q0.08 0 0.16 0 0.17 0 0.25 0.53 0.08 0.53 0.28 1.01 0.1 0.25 0.21 0.49-0.21-0.34-0.41-0.69-0.41-0.69-0.45-1.02-0.02-0.16-0.04-0.32zm5.21 0q-0.06 0.38-0.12 0.77-0.12 0.77-0.29 1.06-0.16 0.28-0.53 0.57-0.18 0.14-0.36 0.28 0.22-0.36 0.44-0.73 0.45-0.73 0.66-1.34 0.1-0.31 0.2-0.61zm-6.71 0.24q0.2 0 0.44 0.49 0.25 0.49 1.18 1.71 0.94 1.22 1.39 1.5 0.44 0.29 0.97 0.45 0.27 0.08 0.53 0.16-0.32-0.04-0.65-0.08-0.65-0.08-1.55-0.73-0.89-0.65-1.95-1.91-1.06-1.26-1.06-1.38 0-0.13 0.25-0.17 0.24-0.04 0.45-0.04zm-1.55 0.25q0.06 0 0.12 0-0.04 0.52-0.08 1.05-0.08 1.06 0.24 1.71 0.33 0.65 1.27 1.26 0.93 0.61 1.34 0.65 0.2 0.02 0.4 0.04 0-0.08 0-0.16 0-0.16-0.44-0.41-0.45-0.24-0.82-0.77-0.36-0.53-0.53-0.93-0.16-0.41-0.12-0.66 0.02-0.12 0.04-0.24 0.1 0.18 0.21 0.37 0.2 0.36 1.01 1.13 0.82 0.78 1.14 0.98 0.33 0.2 0.9 0.37 0.57 0.16 0.73 0.69 0.16 0.53 0.25 1.22 0.08 0.69 0.04 1.75-0.04 1.05-0.13 1.54-0.08 0.49-0.4 1.34-0.33 0.86-0.57 1.26-0.25 0.41-0.65 0.73-0.41 0.33-1.22 0.29-0.41-0.02-0.82-0.04 0 0.08 0 0.16 0 0.16 0.16 0.25 0.17 0.08 0.86 0.12 0.69 0.04 1.02-0.08 0.32-0.13 0.81-0.41 0.49-0.29 0.98-0.81 0.48-0.53 0.81-1.26 0.33-0.74 0.73-2.44 0.41-1.71 0.53-2.61 0.12-0.89 0.08-1.99-0.04-1.1 0.33-1.5 0.18-0.21 0.37-0.41 0 0.55 0 1.1 0 1.1-0.21 2.64-0.2 1.55-0.73 3.09-0.53 1.55-1.02 3.66-0.49 2.11-0.73 2.32-0.24 0.2-0.73 0.4-0.49 0.21-0.86 0.21-0.36 0-1.22-0.33-0.85-0.32-1.34-0.73-0.49-0.41-1.02-1.14-0.53-0.73-1.14-2.03-0.61-1.3-0.89-2.24-0.29-0.93-0.45-1.26-0.16-0.32-0.25-0.32-0.04 0-0.08 0 0.21 0.99 0.41 1.99 0.41 1.99 0.94 3.25 0.53 1.26 0.97 1.87 0.45 0.61 1.02 1.1 0.57 0.49 1.06 0.65 0.49 0.16 0.97 0.16 0.49 0 0.57 0.86 0.09 0.85-0.24 2.19-0.33 1.34-0.41 1.34-0.08 0-0.32-0.65-0.25-0.65-0.61-1.13-0.37-0.49-1.63-2.85-1.26-2.36-1.91-4.07-0.65-1.7-0.82-2.44-0.16-0.73-0.36-2.23-0.21-1.51-0.21-2.77 0-1.26 0.49-2.31 0.49-1.06 0.61-1.71 0.12-0.65 0.37-0.69 0.12-0.02 0.24-0.04-0.16 0.36-0.32 0.73-0.33 0.73-0.33 1.95 0 1.22 0.12 1.91 0.13 0.69 0.61 1.71 0.49 1.02 0.98 1.46 0.25 0.23 0.49 0.45-0.02-0.1-0.04-0.2-0.04-0.21-0.29-0.41-0.24-0.2-0.53-0.73-0.28-0.53-0.44-1.26-0.17-0.73-0.13-2.48 0.05-1.75 0.21-2.28 0.16-0.53 0.32-0.73 0.17-0.2 0.29-0.2zm14.36 0q0.06 0.08 0.13 0.16 0.12 0.16 0.48 0.24 0.37 0.08 0.53 0.25 0.17 0.16 0.25 0.61 0.08 0.44 0 0.52-0.08 0.09-0.29 0.09-0.2 0-0.57-0.37-0.36-0.37-0.45-0.93-0.04-0.29-0.08-0.57zm-16.36 0.32q0.09 0.08 0 0.29-0.08 0.2-0.85 1.7-0.39 0.76-0.77 1.51 0.04-0.43 0.08-0.86 0.08-0.85 0.24-1.34 0.17-0.49 0.41-0.89 0.24-0.41 0.53-0.45 0.28-0.04 0.36 0.04zm18.72 0.73q0.27 0.08 0.53 0.17 0.53 0.16 0.69 0.36 0.17 0.2 0.13 0.33-0.04 0.12-0.41 0.36-0.37 0.25-0.77 0.17-0.41-0.09-0.45-0.17-0.04-0.08 0.12-0.28 0.16-0.21 0.16-0.57 0-0.18 0-0.37zm-2.03 1.47q0.37 0.28 0.73 0.57 0.73 0.56 1.1 0.69 0.37 0.12 0.65 0.93 0.14 0.41 0.29 0.82-0.17-0.11-0.33-0.21-0.33-0.2-0.98-0.85-0.65-0.65-1.05-1.3-0.21-0.33-0.41-0.65zm-4.88 0.16q0.02 0.28 0.04 0.57 0.04 0.57-0.13 1.62-0.16 1.06-1.01 4.52-0.86 3.45-1.39 5.16-0.26 0.85-0.53 1.71 0-0.39 0-0.77 0-0.78 0.17-1.71 0.16-0.94 1.18-4.15 1.01-3.21 1.34-5.08 0.16-0.94 0.33-1.87zm4.55 1.71q0.39 0.77 0.78 1.54 0.77 1.55 2.28 2.97 0.75 0.71 1.5 1.42-0.67-0.3-1.34-0.61-1.34-0.61-1.71-1.54-0.37-0.94-1.02-1.75-0.65-0.81-0.57-1.42 0.04-0.31 0.08-0.61zm-36.54 0.65q1.02 0 2.04 0 2.03 0 2.07 0.57 0.04 0.57 0.25 0.97 0.2 0.41 1.01 1.02 0.41 0.3 0.82 0.61-0.27-0.02-0.53-0.04-0.53-0.04-1.83-0.53-1.31-0.49-2.24-1.1-0.94-0.61-1.26-1.06-0.17-0.22-0.33-0.44zm33.78 0.4q0 0.41 0 0.82 0 0.81-0.29 1.91-0.28 1.1-1.38 2.48-0.55 0.69-1.1 1.38 0.51-1.12 1.02-2.24 1.01-2.23 1.38-3.29 0.18-0.53 0.37-1.06zm-50.46 0.78q0.49 0.04 0.73 0.52 0.24 0.49 1.3 1.55 0.53 0.53 1.06 1.06-0.49-0.13-0.98-0.25-0.97-0.24-1.34-0.44-0.37-0.21-1.3-1.22-0.94-1.02-0.94-1.1 0-0.08 0.49-0.12 0.49-0.04 0.98 0zm52.33 0.69q0.28 0.36 0.57 0.73 0.57 0.73 0.69 2.44 0.12 1.71-0.04 2.93-0.16 1.22-0.49 2.03-0.32 0.81-0.57 1.02-0.12 0.1-0.24 0.2-0.04-0.47-0.08-0.94-0.09-0.93 0.2-2.8 0.28-1.87 0.28-2.4 0-0.53-0.2-0.57-0.2-0.04-0.57 1.54-0.37 1.59-0.73 2.44-0.37 0.86-0.53 1.02-0.08 0.08-0.16 0.16 0-0.26 0-0.53 0-0.52 0.24-1.42 0.24-0.89 0.69-1.87 0.45-0.97 0.69-2.48 0.13-0.75 0.25-1.5zm-17.34 2.68q0.29 0.98 0.57 1.95 0.57 1.95 1.02 2.93 0.22 0.49 0.45 0.98-0.04 0-0.08 0-0.09 0-0.82-1.02-0.36-0.51-0.73-1.02-0.02 0.23-0.04 0.45-0.04 0.45 0.24 1.5 0.29 1.06 1.02 2.32 0.73 1.26 1.1 1.63 0.37 0.36 1.22 0.89 0.85 0.53 1.42 2.28 0.57 1.75 0.74 2.8 0.08 0.53 0.16 1.06-0.45-0.51-0.9-1.02-0.89-1.01-1.62-1.62-0.74-0.61-1.31-1.38-0.57-0.78-1.05-1.67-0.49-0.9-0.86-2.4-0.36-1.5-0.57-3.41-0.2-1.92-0.08-3.58 0.06-0.84 0.12-1.67zm21.73 1.46q0.13 0.09 0.25 0.17 0.24 0.16 0.2 0.89-0.04 0.73 0.2 2.12 0.25 1.38 0.41 3.13 0.16 1.74 0.16 3.41 0 1.67-0.36 3.46-0.37 1.79-0.37 2.56 0 0.77-0.89 1.01-0.45 0.13-0.9 0.25 0.37-1.16 0.73-2.32 0.74-2.32 0.61-3.62-0.12-1.3-0.36-1.62-0.25-0.33-0.53-1.39-0.29-1.05-0.2-1.22 0.08-0.16 0.08-0.85 0-0.69-0.08-1.06-0.09-0.36 0.04-0.4 0.12-0.04 0.28-0.45 0.16-0.41 0.12-0.85-0.04-0.45-0.2-0.57-0.16-0.13-0.16-0.45 0-0.33 0.12-0.41 0.06-0.04 0.12-0.08 0.1 0.16 0.2 0.33 0.21 0.32 0.45 0.32 0.12 0 0.25 0-0.05-0.59-0.09-1.18-0.04-0.59-0.08-1.18zm-7 2.12q0 0.41 0 0.81 0 0.81-0.44 2.12-0.45 1.3-0.98 2.35-0.53 1.06-0.98 2.65-0.44 1.58-0.44 1.91 0 0.16 0 0.32 0.1 0 0.2 0 0.2 0 0.32-0.57 0.13-0.57 0.37-1.09 0.24-0.53 0.45-0.82 0.2-0.28 0.45-0.4 0.12-0.07 0.24-0.13 0.06 0.23 0.12 0.45 0.12 0.45 0.16 1.91 0.05 1.47-0.61 3.17-0.65 1.71-1.22 4.19-0.28 1.24-0.57 2.48 0.09 0 0.17 0 0.16 0 0.44-0.81 0.29-0.81 0.94-2.12 0.65-1.3 1.59-2.76 0.47-0.73 0.93-1.46-0.02 0.32-0.04 0.65-0.04 0.65-0.49 2.15-0.44 1.5-0.97 2.52-0.53 1.02-1.02 1.63-0.49 0.61-0.53 0.81-0.04 0.2 0.04 0.28 0.08 0.09 0.25 0.05 0.16-0.04 1.18-1.26 1.01-1.22 1.75-1.75 0.73-0.53 1.09-0.73 0.37-0.21 0.66-0.25 0.28-0.04 0.32 0.21 0.04 0.24-0.28 0.44-0.33 0.21-1.22 1.14-0.9 0.94-1.67 2.03-0.78 1.1-1.14 2.08-0.37 0.97-0.29 1.13 0.04 0.09 0.08 0.17 0.13-0.27 0.25-0.53 0.24-0.53 0.77-1.26 0.53-0.73 1.02-1.26 0.24-0.27 0.49-0.53 0.02 0.04 0.04 0.08 0.04 0.08-0.86 1.71-0.89 1.63-2.15 3.5-0.63 0.93-1.26 1.87-0.09-1.51-0.17-3.01-0.16-3.01-0.77-6.14-0.61-3.13-0.53-5.69 0.08-2.57 0.29-4.03 0.2-1.46 0.48-2.52 0.15-0.53 0.29-1.06 0.04 0.02 0.08 0.04 0.08 0.04 0.08 0.41 0 0.37-0.08 1.46-0.04 0.55-0.08 1.1 0.04 0 0.08 0 0.08 0 0.28-1.5 0.21-1.51 0.57-2.56 0.37-1.06 0.82-1.75 0.45-0.69 0.97-1.26 0.27-0.29 0.53-0.57zm27.92 0.41q0.1 0.04 0.2 0.08 0.21 0.08 0.25 0.48 0.02 0.21 0.04 0.41-0.12-0.24-0.25-0.49-0.12-0.24-0.24-0.48zm-0.25 0.24q0.09 0 0.29 0.49 0.2 0.48 0.12 0.81-0.04 0.16-0.08 0.33-0.14-0.33-0.28-0.66-0.29-0.65-0.21-0.81 0.08-0.16 0.16-0.16zm-0.4 0.49q0.12 0.28 0.24 0.57 0.25 0.57 0.12 0.85-0.12 0.28-0.2 0.28-0.08 0-0.2-0.48-0.12-0.49-0.04-0.86 0.04-0.18 0.08-0.36zm1.63 0.4q0.02 0.15 0.04 0.29 0.04 0.28-0.08 0.4-0.07 0.07-0.13 0.13-0.02-0.08-0.04-0.17-0.04-0.16 0.08-0.4 0.06-0.12 0.13-0.25zm-44.12 0.08q0.13 0.78 0.25 1.55 0.12 0.77 0.24 1.54-0.12-0.38-0.24-0.77-0.25-0.77-0.25-1.54 0-0.39 0-0.78zm42.08 0.17q0.1 0.3 0.2 0.61 0.21 0.61 0.13 0.81-0.04 0.1-0.08 0.2-0.13-0.26-0.25-0.52-0.24-0.53-0.12-0.82 0.06-0.14 0.12-0.28zm-31.82 0.57q0.06 1.11 0.12 2.23 0.12 2.24 0 5-0.12 2.77-0.41 3.95-0.14 0.59-0.28 1.18-0.08-0.41-0.16-0.82-0.17-0.81-0.25-5.4-0.08-4.6-0.16-5.01-0.08-0.4 0.33-0.56 0.4-0.17 0.61-0.37 0.1-0.1 0.2-0.2zm33.45 0.08q0.02 0.08 0.04 0.16 0.04 0.16-0.12 0.33-0.08 0.08-0.17 0.16-0.02-0.04-0.04-0.08-0.04-0.08 0.13-0.33 0.08-0.12 0.16-0.24zm-23.52 0.57q-0.02 0.34-0.04 0.69-0.04 0.69 0.04 0.89 0.08 0.21-0.08 0.29-0.17 0.08-0.33 0.57-0.16 0.48-0.73 2.8-0.57 2.32-0.57 2.89 0 0.57 0.2 1.38 0.1 0.41 0.21 0.81-0.23-0.48-0.45-0.97-0.45-0.98-0.53-1.75-0.08-0.77 0.24-1.95 0.33-1.18 0.82-2.24 0.49-1.06 0.69-1.95 0.2-0.89 0.37-1.18 0.08-0.14 0.16-0.28zm21.08 0q0.1 0.4 0.2 0.81 0.2 0.81 0.57 1.38 0.37 0.57 0.49 0.94 0.12 0.36 0.08 1.01-0.04 0.65-0.33 1.39-0.28 0.73-0.36 0.73-0.08 0-0.25-1.3-0.16-1.3-0.28-3.13-0.06-0.92-0.12-1.83zm-41.51 0.89q0.16 0.55 0.33 1.1 0.32 1.1 0.81 2.07 0.49 0.98 1.95 3.01 1.47 2.03 2.4 3.94 0.94 1.92 1.18 2.81 0.25 0.89 0.33 2.07 0.08 1.18 0.28 2.08 0.21 0.89 1.06 2.68 0.86 1.79 1.18 3.25 0.17 0.73 0.33 1.47-0.27 0-0.53 0-0.53 0-0.57-0.08-0.04-0.09-0.45-2.12-0.41-2.03-1.26-4.02-0.85-2-1.38-3.7-0.53-1.71-1.1-2.77-0.57-1.06-1.06-2.23-0.49-1.18-1.87-3.3-1.39-2.11-1.67-2.44-0.28-0.32-0.45-0.24-0.08 0.04-0.16 0.08 0.28 0.47 0.57 0.94 0.57 0.93 0.69 1.42 0.12 0.49 0.12 0.73 0 0.24-0.24 0.33-0.25 0.08-0.25 0.32 0 0.24 0.49 1.22 0.49 0.98 0.82 1.38 0.32 0.41 0.93 1.83 0.31 0.71 0.61 1.43-0.95-1.31-1.91-2.61-1.91-2.6-2.6-3.17-0.7-0.57-1.14-0.57-0.23 0-0.45 0 0.14-0.51 0.28-1.01 0.29-1.02 0.53-1.51 0.25-0.49 0.98-1.42 0.73-0.94 0.98-1.95 0.12-0.51 0.24-1.02zm20.51 2.44q0.04 0.33 0.08 0.65 0.08 0.65 0.29 1.22 0.2 0.57 0.24 1.14 0.04 0.57-0.28 2.52-0.33 1.95-0.41 1.99-0.04 0.02-0.08 0.04-0.19-0.44-0.37-0.89-0.37-0.9-0.41-1.87-0.04-0.98 0.45-2.89 0.25-0.95 0.49-1.91zm17.17 1.22q0.06 0.37 0.12 0.73 0.13 0.73 0.33 1.06 0.2 0.32 0.12 0.41-0.08 0.08-0.36 0.04-0.29-0.04-0.41-0.21-0.12-0.16 0.04-1.09 0.08-0.47 0.16-0.94zm1.14 3.66q0.08 0 0.16 0.24 0.09 0.25 0.09 0.45 0 0.2-0.13 0.33-0.06 0.06-0.12 0.12-0.06-0.12-0.12-0.25-0.12-0.24-0.04-0.57 0.08-0.32 0.16-0.32zm-41.91 0.57q0.57 0.71 1.14 1.42 0.57 0.71 1.14 1.42-0.39-0.28-0.78-0.56-0.77-0.57-1.38-0.86-0.61-0.28-0.37-0.85 0.13-0.29 0.25-0.57zm36.62 0.16q0.33 0.14 0.65 0.29 0.65 0.28 1.1 0.73 0.45 0.45 0.77 1.18 0.33 0.73 0.25 1.34-0.08 0.61-0.86 1.91-0.38 0.65-0.77 1.3-0.2-0.16-0.41-0.33-0.2-0.16-0.4-0.32 0.24-0.22 0.49-0.45 0.48-0.44 0.93-1.22 0.45-0.77 0.53-1.3 0.08-0.53-0.24-1.14-0.33-0.61-0.82-1.09-0.49-0.49-0.85-0.7-0.19-0.1-0.37-0.2zm4.31 0.33q0.07 0.3 0.13 0.61 0.12 0.61-0.04 0.73-0.09 0.06-0.17 0.12-0.12-0.18-0.24-0.37-0.24-0.36 0.04-0.73 0.14-0.18 0.28-0.36zm0.66 1.87q0.28 0.3 0.57 0.61 0.57 0.61 1.18 1.01 0.61 0.41 0.85 0.86 0.12 0.22 0.24 0.44-0.2-0.14-0.4-0.28-0.41-0.29-1.22-0.33-0.82-0.04-1.35 0.33-0.53 0.37-1.22 1.06-0.69 0.69-0.93 1.18-0.25 0.48-0.37 0.44-0.12-0.04-0.28-0.24-0.17-0.2 0.24-0.61 0.41-0.41 0.61-0.77 0.2-0.37 0.73-0.86 0.53-0.49 1.22-0.77 0.7-0.28 1.22-0.16 0.27 0.06 0.53 0.12 0-0.06 0-0.12 0-0.12-0.12-0.21-0.12-0.08-0.85-0.36-0.74-0.29-0.69-0.81 0.02-0.27 0.04-0.53zm-44.12 0.57q-0.04 0.38-0.08 0.77-0.08 0.77 0.08 1.02 0.17 0.24 0.17 0.52 0 0.29-0.25 0.49-0.12 0.1-0.24 0.2-0.08-0.22-0.16-0.44-0.17-0.45-0.21-0.94-0.04-0.49 0.04-0.73 0.09-0.24 0.37-0.57 0.14-0.16 0.28-0.32zm28.04 0.57q0.14 0 0.29 0-0.1 0.22-0.21 0.44-0.2 0.45-0.69 0.37-0.49-0.08-0.49-0.37 0-0.28 0.41-0.36 0.41-0.08 0.69-0.08zm-26.04 0.32q0.69 0 1.14 0.24 0.45 0.25 0.36 0.45-0.08 0.21 0.66 0.9 0.73 0.69 1.18 1.5 0.22 0.41 0.44 0.81-0.3-0.26-0.61-0.52-0.61-0.53-1.22-0.86-0.61-0.32-1.63-0.53-1.01-0.2-1.09-0.73-0.09-0.53 0-0.89 0.08-0.37 0.77-0.37zm23.6 0.16q0.12 0 0.29 0.21 0.16 0.2 0.08 0.4-0.08 0.21-0.29 0.21-0.2 0-0.32-0.13-0.13-0.12 0-0.4 0.12-0.29 0.24-0.29zm-21.36 0.57q0.22 0.06 0.44 0.12 0.45 0.13 0.94 0.41 0.49 0.29 1.51 1.26 1.01 0.98 1.87 3.54 0.85 2.56 1.22 4.51 0.18 0.98 0.37 1.95-0.07 0-0.13 0-0.12 0-0.69-2.23-0.57-2.24-1.14-3.78-0.57-1.55-1.5-2.85-0.94-1.3-1.92-2.11-0.48-0.41-0.97-0.82zm22.7 0.33q0.31 0.04 0.61 0.08 0.61 0.08 0.7 0.49 0.04 0.2 0.08 0.4-0.35-0.24-0.69-0.48-0.35-0.25-0.7-0.49zm-0.32 0.65q0.2 0.12 0.41 0.24 0.4 0.25 1.26 1.1 0.42 0.43 0.85 0.85-0.39-0.18-0.77-0.36-0.78-0.37-1.26-1.1-0.25-0.37-0.49-0.73zm-1.22 0.16q0 0.26 0 0.53 0 0.53-0.49 1.71-0.25 0.59-0.49 1.18 0.06-0.49 0.12-0.98 0.12-0.98 0.45-1.42 0.33-0.45 0.37-0.73 0.02-0.15 0.04-0.29zm0.65 0q0.3 0.39 0.61 0.77 0.61 0.78 1.63 1.14 1.01 0.37 1.62 0.98 0.31 0.3 0.61 0.61-0.59-0.17-1.18-0.33-1.18-0.32-1.79-0.65-0.61-0.32-1.05-0.81-0.45-0.49-0.45-1.1 0-0.3 0-0.61zm-24.82 0.24q0.34 0.17 0.69 0.33 0.69 0.32 1.14 0.81 0.44 0.49 0.69 1.02 0.12 0.26 0.24 0.53-0.36-0.14-0.73-0.29-0.73-0.28-1.38-0.93-0.65-0.65-0.65-1.06 0-0.2 0-0.41zm44.07 0.17q0.22 0.04 0.44 0.08-0.67 0.45-1.34 0.89-0.67 0.45-1.34 0.9 0.22-0.33 0.45-0.65 0.44-0.65 0.89-0.98 0.45-0.32 0.9-0.24zm-43.99 1.79q0.18 0.16 0.36 0.32 0.37 0.33 1.26 0.65 0.9 0.33 1.96 1.14 1.06 0.81 1.99 1.99 0.94 1.18 1.47 2.12 0.53 0.93 0.73 1.54 0.1 0.31 0.2 0.61-0.18-0.02-0.36-0.04-0.37-0.04-0.74-0.81-0.36-0.78-1.22-1.91-0.85-1.14-1.58-1.96-0.74-0.81-1.67-1.34-0.94-0.52-1.47-1.05-0.53-0.53-0.73-0.9-0.1-0.18-0.2-0.36zm24.17 0.4q0.06 0.37 0.12 0.73 0.12 0.74 0.12 1.96 0 1.22-0.24 2.88-0.25 1.67-1.22 1.87-0.49 0.1-0.98 0.21 0.08-0.47 0.16-0.94 0.17-0.93 1.1-3.82 0.47-1.44 0.94-2.89zm-24.91 0.41q0.27 0.3 0.53 0.61 0.53 0.61 1.27 1.06 0.73 0.44 0.89 0.65 0.16 0.2-0.08 2.19-0.12 1-0.25 1.99-0.65-0.18-1.3-0.36-1.3-0.37-1.38-1.95-0.08-1.59 0.12-2.89 0.1-0.65 0.2-1.3zm38.66 0.49q0.25 0.16-0.12 0.81-0.18 0.33-0.37 0.65-0.06-0.3-0.12-0.61-0.12-0.61 0.12-0.81 0.25-0.21 0.49-0.04zm-16.36 0.4q0.02 0.04 0.05 0.08 0.04 0.09-0.25 0.82-0.28 0.73-1.63 3.29-1.34 2.56-1.95 2.6-0.31 0.02-0.61 0.04 0.22-0.48 0.45-0.97 0.44-0.98 2.19-3.42 0.88-1.22 1.75-2.44zm14.82 0.49q0.04 0.02 0.08 0.04 0.08 0.04 0.16 0.61 0.08 0.57-0.24 0.69-0.17 0.06-0.33 0.12-0.02-0.12-0.04-0.24-0.04-0.24 0.16-0.73 0.1-0.24 0.21-0.49zm-5.62 0.81q0.29 0.35 0.57 0.7 0.57 0.69 0.81 1.13 0.13 0.23 0.25 0.45-0.2 0.06-0.41 0.12-0.41 0.13-0.81-1.13-0.21-0.64-0.41-1.27zm-9.68 1.71q-0.09 0.88-0.17 1.75-0.16 1.75-0.53 1.79-0.18 0.02-0.36 0.04 0.06-0.37 0.12-0.73 0.06-0.37 0.12-0.73-0.08 0-0.16 0-0.16 0-0.33 0.73-0.16 0.73-0.61 0.81-0.22 0.04-0.44 0.08 0.28-0.53 0.57-1.05 0.57-1.06 1.18-1.87 0.3-0.41 0.61-0.82z"/>
				</g>
			</g>
		</g>
	</g>
</svg>