<svg width="23" height="23" viewBox="0 0 23 23" fill="none" xmlns="http://www.w3.org/2000/svg">
<path d="M0.406248 11.0894L5.70591 13.0674L7.7572 19.6644C7.88846 20.0869 8.40511 20.2431 8.74804 19.9627L11.7022 17.5544C12.0118 17.3021 12.4529 17.2896 12.7765 17.5245L18.1047 21.3928C18.4715 21.6595 18.9912 21.4585 19.0832 21.0152L22.9864 2.24019C23.0869 1.75596 22.6111 1.35201 22.15 1.53033L0.400038 9.92081C-0.136705 10.1278 -0.132029 10.8877 0.406248 11.0894ZM7.42662 12.0145L17.7841 5.6353C17.9703 5.52099 18.1618 5.77269 18.0019 5.92096L9.45399 13.8667C9.15353 14.1464 8.95972 14.5207 8.90483 14.9269L8.61365 17.0848C8.57508 17.3729 8.17036 17.4015 8.09086 17.1226L6.97099 13.1877C6.84272 12.7389 7.02964 12.2595 7.42662 12.0145Z" fill="#A47764"/>
</svg>
