<svg width="58" height="58" viewBox="0 0 58 58" fill="none" xmlns="http://www.w3.org/2000/svg">
<path d="M28.9999 21.7209C25.0037 21.7209 21.7209 25.0037 21.7209 28.9994C21.7209 32.9956 25.0037 36.2784 28.9999 36.2784C32.8598 36.2784 36.0249 33.2078 36.2383 29.3984C36.265 29.2671 36.2786 29.1334 36.2789 28.9994C36.2787 28.8648 36.2651 28.7305 36.2383 28.5986C36.0237 24.7891 32.8587 21.7209 28.9999 21.7209ZM28.9999 25.7809C30.802 25.7809 32.2189 27.1973 32.2189 28.9994C32.2189 30.8014 30.802 32.2184 28.9999 32.2184C27.1979 32.2184 25.7809 30.8014 25.7809 28.9994C25.7809 27.1973 27.1979 25.7809 28.9999 25.7809Z" fill="#D7AC8A"/>
</svg>
